<svg xmlns="http://www.w3.org/2000/svg" width="298.7" height="298.7" fill="#323158" viewBox="0 0 224 224"><path d="M111.5 80a12.3 12.3 0 00-5.4 8.3 14.3 14.3 0 01-.5-.3 13.2 13.2 0 00-5.9-1.4c-1.1 0-1.4 0-2.3.2l-1.6.5-.1.7a9.1 9.1 0 00-.1 1.5c0 1 .1 1.5.3 2.5a13.4 13.4 0 002.5 5l.2.3a12.6 12.6 0 01-.5.2 12.8 12.8 0 00-6.7 6.4l-.3.7a20 20 0 001.6 1.5c.7.6 1.6 1 2.3 1.4 3.2 1.5 6.8 1.7 10.3.6a14 14 0 004.6-2.6 13.8 13.8 0 002-2.3l.4.4c1 1.5 2.7 2.8 4.6 3.8 2.2 1 5 1.6 7.4 1.4a13 13 0 008.1-3.8l.5-.4-.2-.4a12 12 0 00-2.3-3.6 13.4 13.4 0 00-4.6-3.1l-.4-.2.3-.4a13.4 13.4 0 002.7-7.7 12.7 12.7 0 00-.2-2 11.5 11.5 0 00-3.6-.6 12.3 12.3 0 00-6.2 1.4 10.6 10.6 0 01-.5.3l-.2-.7a12.8 12.8 0 00-5.7-8l-.5.4zm.8 2.8c1.2 1 2.3 2.6 2.8 4.4a11.5 11.5 0 01-3 12.1l-.1.1-.3-.2a10.7 10.7 0 01-3.5-8.3c0-1 0-1.5.2-2.3a10.8 10.8 0 013.6-6 6 6 0 01.3.2zM100.7 89a11.3 11.3 0 014.9 1.7l.3.2v.5a14 14 0 003.4 8.7l-1.8-.1a12.7 12.7 0 01-2.4-.7 12 12 0 01-5.2-4c-1.2-1.8-2-3.8-2-5.7V89h.3a8 8 0 011.5-.2 10.4 10.4 0 011 0zm24.4 0h1v.5c-.1 2-.7 3.7-1.8 5.4a11.7 11.7 0 01-9.6 5.2s0-.2.2-.3a13.3 13.3 0 003.2-8.3V91l.4-.3a12.5 12.5 0 012-1 11 11 0 013-.7h1.6zm-24.4 10.4a13.7 13.7 0 002.6 1.7 13 13 0 005.9 1.3h.5l-.3.3a11.3 11.3 0 01-10 3.7c-1.3-.1-2.3-.5-3.4-1a8.9 8.9 0 01-1.8-1l-.3-.3v-.2a10 10 0 012.2-2.5 11.6 11.6 0 014.3-2.2l.3.2zm23.3-.1l1.5.6a10.2 10.2 0 014.4 3.8l.2.4h-.1a9.3 9.3 0 01-2.3 1.4 11.7 11.7 0 01-13.4-3.1h.7a12.4 12.4 0 003.9-.6 14 14 0 004.4-2.5l.3-.1a6.5 6.5 0 01.4 0zm12.6 25.4a10.5 10.5 0 00-2.4.5 9.5 9.5 0 00-6 6c-.7 1.9-.8 4.2-.2 6.3a9.8 9.8 0 002.8 4.3c1 1 2.4 1.8 3.8 2.2a11 11 0 005.9 0 9.6 9.6 0 006.8-9.5c0-2.2-.6-4.2-1.8-5.9a9.6 9.6 0 00-5.7-3.7 11.5 11.5 0 00-3.2-.2zm1.8 1.4c2.8.3 5.1 1.9 6.4 4.3 1 1.8 1.3 4 .8 6.2a8.1 8.1 0 01-5.1 5.8c-1.6.5-3.5.6-5.2.2a8.5 8.5 0 01-3.3-1.6c-2-1.7-3-4.2-2.9-7a8.2 8.2 0 019.3-7.9zm0 0M160 124.7a9.2 9.2 0 00-5 1.8 10 10 0 00-3.8 6 10.2 10.2 0 00.3 4.9 10.5 10.5 0 001.4 2.8 10 10 0 003 2.8c1.7 1 3.4 1.4 5.4 1.3 1.3 0 2.3-.3 3.2-.6a7.3 7.3 0 001.4-.8l1-.8v-3.4c0-3.8 0-3.6-.2-3.8l-.3-.1H161a.9.9 0 00-.4.3v.4c0 .2.1.4.3.5h4.5V141.4l-.2.2a7.6 7.6 0 01-4 1.4c-1.8 0-3.5-.4-5-1.4a8.1 8.1 0 01-2.3-2.3 8.4 8.4 0 01-1.4-5.2 8.5 8.5 0 018.4-7.9c1.4 0 2.4.3 3.3.7a5.9 5.9 0 011.3.9c.5.4.7.4 1 .3.3 0 .5-.3.5-.7 0-.3-.1-.4-.7-.8a9.2 9.2 0 00-4.7-1.8 13.3 13.3 0 00-1.6 0zm-122.1.2c-.3 0-.5.2-.5.5v18.3c.2.3.4.4.7.4.3 0 .5-.1.7-.5v-8.1c.1-.8.5-1.6 1.1-2.2.7-.7 1.6-1.1 2.7-1.3a8 8 0 011.6 0 4.3 4.3 0 014 3.9v7.6a.7.7 0 001 .6c.2 0 .3-.2.4-.4l.1-.2v-8c-.4-2.4-2-4.2-4.3-4.8l-1.4-.2a6.4 6.4 0 00-1.8 0 6 6 0 00-3.2 1.9l-.2.2v-7.3l-.1-.1a.5.5 0 00-.2-.2 1 1 0 00-.6-.1zm33.4 0a.6.6 0 00-.3.3l-.1.2V141c.3 1.6 1.2 2.7 2.4 3h1.3c.3 0 .4 0 .6-.2.2-.3.1-.8-.2-1-.1-.2-.3-.2-.8-.2h-.6c-.6-.2-1-.8-1.2-1.7V133l-.1-7.8c-.2-.3-.6-.4-1-.3zm8 0c-.2 0-.3.1-.3.2-.2.2-.2-.5-.2 8v8c.2 1 .6 1.6 1.1 2.2s1 .7 1.9.8c.6 0 1 0 1.2-.2.3-.3.2-1-.2-1.2h-.6l-.7-.1c-.4-.2-.8-.6-1-1.2a5 5 0 01-.2-.5v-15.5l-.2-.2a.7.7 0 00-.4-.3.7.7 0 00-.5 0zm0 0M111.2 124.9c-.4.1-.6.6-.4 1l3.4 5.6 3.4 5.4v6.6l.4.5c.5.2 1 0 1-.5l.1-3.4V137l3.4-5.4 3.4-5.6a1 1 0 000-.6c0-.3-.2-.4-.6-.4-.2 0-.3 0-.5.3l-3.3 5.2-3.1 5.1-3.2-5.1-3.3-5.3a.7.7 0 00-.7-.2zm67 0a.7.7 0 00-.4.2 2708.4 2708.4 0 00-7.6 18.3c0 .5.4.8.9.7a.6.6 0 00.4-.3l1-2.2.8-2.2.1-.1h10l1 2.2.9 2.2c.1.3.3.4.6.4.2 0 .4 0 .5-.2a.7.7 0 00.3-.5l-7.2-17.1a16.1 16.1 0 00-.5-1 .7.7 0 00-.5-.4h-.3zm2.4 7.7l2.2 5.3H174a1391.5 1391.5 0 014.4-10.6 769.8 769.8 0 012.2 5.3zM92 130.5a6.7 6.7 0 00-6.2 6.9c0 .9 0 1.1.2 1.8a6.6 6.6 0 004.7 4.8 7.7 7.7 0 003.8 0 6.8 6.8 0 003-1.8 6.8 6.8 0 002-4.8 6.6 6.6 0 00-6.7-6.9h-.8zm1.2 1.4a5.3 5.3 0 013.5 1.7c.7.8 1.1 1.8 1.3 3a8.6 8.6 0 010 1.7 5.3 5.3 0 01-3 4 5.8 5.8 0 01-5.6-.4 5.7 5.7 0 01-2-5.7 5.5 5.5 0 012.3-3.5c1-.6 2.3-1 3.5-.8zm-33-1.4a6 6 0 00-5 3.4 8 8 0 00-.7 4 6.5 6.5 0 006.7 6.3c.8 0 1.5-.1 2.4-.4s1.9-1 2.2-1.3c.2-.3.1-.7-.2-.9-.2-.2-.6-.2-1 0-.5.5-1 .8-1.7 1-1.2.3-2.3.3-3.4 0a6 6 0 01-1.3-.7c-.4-.3-1-.8-1.2-1.2a5.4 5.4 0 01-1-2.8v-.1h10.7a.5.5 0 00.3-.3v-1a7 7 0 00-1.2-3.5 7.5 7.5 0 00-1-1.2 6 6 0 00-2.8-1.2H60zm1.3 1.4a6.2 6.2 0 011 .3c1 .3 1.8 1 2.4 1.9.3.6.6 1.5.7 2.2v.3h-4.8l-4.8-.1v-.2c.2-.7.5-1.7.9-2.3.6-1 1.7-1.7 2.7-2a5.8 5.8 0 011.9 0zm0 0"/></svg>