<svg xmlns="http://www.w3.org/2000/svg" width="452.72" height="258.13" viewBox="0 0 119.78 68.3"><defs><clipPath id="aA"><path d="M261.4 301.73c-.35 1.42-.74 2.17-2.15 3.57l-.13.03a4.13 4.13 0 0 0-2.3 1.92c-.38.96.1 2 .48 2.87.77 1.72 2.3 3.35 2.3 5.26l-.01.1c.8-.36 1.55-.75 2.22-1.17l.78-.52c1.14-3.4-.04-8.1-1.2-12.06"/></clipPath><radialGradient id="aB" cx="0" cy="0" r="1" fx="0" fy="0" gradientTransform="matrix(283.535 0 0 -283.535 199.5 199.5)" gradientUnits="userSpaceOnUse" spreadMethod="pad"><stop offset="0" stop-color="#1f7256"/><stop offset="1" stop-color="#1c6a4a"/></radialGradient><clipPath id="ay"><path d="M236.96 145.7c-.15.76-.1 1.62.2 2.54l.84 1.5c.06-.03.1-.05.16-.06a8.98 8.98 0 0 1-1.1-3.98h-.1"/></clipPath><radialGradient id="az" cx="0" cy="0" r="1" fx="0" fy="0" gradientTransform="matrix(283.535 0 0 -283.535 199.5 199.5)" gradientUnits="userSpaceOnUse" spreadMethod="pad"><stop offset="0" stop-color="#0f1f02"/><stop offset="1" stop-color="#0f1e02"/></radialGradient><clipPath id="aw"><path d="M236.38 145.69a13.3 13.3 0 0 0-.17 2.75c.02.6.12 1.18.27 1.74a18.7 18.7 0 0 0 1.52-.45l-.84-1.49a4.88 4.88 0 0 1-.2-2.54l-.58-.01"/></clipPath><radialGradient id="ax" cx="0" cy="0" r="1" fx="0" fy="0" gradientTransform="matrix(283.535 0 0 -283.535 199.5 199.5)" gradientUnits="userSpaceOnUse" spreadMethod="pad"><stop offset="0" stop-color="#0f260b"/><stop offset="1" stop-color="#0f2409"/></radialGradient><clipPath id="au"><path d="M237.06 145.3l-.1.4h.1v-.4m1.1 4.38l-.16.05.2.35c.4 2.16.46 3.9.3 5.5.13.5.24 1.02.3 1.58a42 42 0 0 1 .26 5.1c.35.65.71 1.34 1.07 2.07l.14-.02c.24-.04 2.3-7.93 2.8-9.1a17.56 17.56 0 0 1-4.91-5.53m4.96 5.56l-2.05 9.77-.15.93.46.97a38.49 38.49 0 0 0 3.53 6.13c-.06-3.98-.08-8.02.02-11.64-.53-1.7-1.04-3.6-1.5-5.93l-.3-.23"/></clipPath><radialGradient id="av" cx="0" cy="0" r="1" fx="0" fy="0" gradientTransform="matrix(283.535 0 0 -283.535 199.5 199.5)" gradientUnits="userSpaceOnUse" spreadMethod="pad"><stop offset="0" stop-color="#15340e"/><stop offset="1" stop-color="#13300d"/></radialGradient><clipPath id="as"><path d="M237.62 142.8l-.54.05c-.29.72-.54 1.76-.7 2.84l.58.01.1-.4c.02-.53.1-1.07.24-1.62l.32-.88m.38 6.93c-.46.16-.97.3-1.52.45.48 1.82 1.48 3.45 2.01 5.4.17-1.6.1-3.34-.3-5.5l-.19-.35m6.93 11.67c-.1 3.62-.08 7.66-.01 11.64 1.47 2.09 2.94 3.74 4.27 5.31-.02-.76-.06-1.4-.13-1.85-1.05-7.17-2.66-10.43-4.13-15.1"/></clipPath><radialGradient id="at" cx="0" cy="0" r="1" fx="0" fy="0" gradientTransform="matrix(283.535 0 0 -283.535 199.5 199.5)" gradientUnits="userSpaceOnUse" spreadMethod="pad"><stop offset="0" stop-color="#153f54"/><stop offset="1" stop-color="#143b47"/></radialGradient><clipPath id="aq"><path d="M243.08 155.2c-.51 1.18-2.57 9.07-2.81 9.1l-.14.02a88 88 0 0 1 .8 1.62l.14-.94 2.05-9.76-.04-.03"/></clipPath><radialGradient id="ar" cx="0" cy="0" r="1" fx="0" fy="0" gradientTransform="matrix(283.535 0 0 -283.535 199.5 199.5)" gradientUnits="userSpaceOnUse" spreadMethod="pad"><stop offset="0" stop-color="#1e5e0f"/><stop offset="1" stop-color="#1b570d"/></radialGradient><clipPath id="ao"><path d="M237.95 141.7a2.93 2.93 0 0 0-.53.46c-.17.2-.28.4-.32.63l-.03.06.54-.05.39-1.06-.05-.03"/></clipPath><radialGradient id="ap" cx="0" cy="0" r="1" fx="0" fy="0" gradientTransform="matrix(283.535 0 0 -283.535 199.5 199.5)" gradientUnits="userSpaceOnUse" spreadMethod="pad"><stop offset="0" stop-color="#1f7256"/><stop offset="1" stop-color="#1c6a4a"/></radialGradient><clipPath id="am"><path d="M239.06 162.26c-.01.78-.04 1.52-.1 2.22.4-.04.78-.1 1.17-.15a77.6 77.6 0 0 0-1.07-2.07m1.86 3.68c-.42 3.03-.26 6.25-.7 9.34-.43 2.1-.95 4.19-1.34 6.28.53 3.37 1.23 6.2 1.53 7.75.41 1.38.12 3.58-.28 6.05.45 1.1.98 2.17 1.53 3.21 1.83-.66 2.78-2.07 3.26-4.18.53-2.28.14-11.65 0-21.35a38.49 38.49 0 0 1-4-7.1"/></clipPath><radialGradient id="an" cx="0" cy="0" r="1" fx="0" fy="0" gradientTransform="matrix(283.535 0 0 -283.535 199.5 199.5)" gradientUnits="userSpaceOnUse" spreadMethod="pad"><stop offset="0" stop-color="#903f18"/><stop offset="1" stop-color="#883c15"/></radialGradient><clipPath id="ak"><path d="M244.91 173.04c.15 9.7.54 19.07.01 21.35-.48 2.1-1.43 3.52-3.26 4.18.72 1.4 1.48 2.75 2.14 4.17h-.08a4.74 4.74 0 0 0-2.07 3.4c0 5.93 3.76 8.44 8.79 10.05 1.06.31 2.24.61 3.45.94-2.14-10.04-5.5-19.75-5.2-23.65 0 0 .65-10.18.5-15.13-1.33-1.57-2.8-3.22-4.28-5.31"/></clipPath><radialGradient id="al" cx="0" cy="0" r="1" fx="0" fy="0" gradientTransform="matrix(283.535 0 0 -283.535 199.5 199.5)" gradientUnits="userSpaceOnUse" spreadMethod="pad"><stop offset="0" stop-color="#954d88"/><stop offset="1" stop-color="#8c4874"/></radialGradient><clipPath id="ai"><path d="M240.13 164.32l-1.16.16c-.17 2.53-.53 4.74-.69 7.5-.19 3.26.14 6.62.6 9.58.39-2.1.91-4.19 1.33-6.28.45-3.1.29-6.3.71-9.34a88 88 0 0 0-.78-1.62m-.01 31.04c-.2 1.16-.4 2.4-.58 3.62.8-.05 1.5-.2 2.1-.41a38.87 38.87 0 0 1-1.52-3.21m-39.35 15.71c-3.1 0-4.93 1-6.53 3.75-4.22 7.26 7.43 14.15 12.23 17.22l.42.26c.3-.36.47-.6.5-.68 2.05-5.72 7.85-8.49 10.28-13.78.5-1.1.66-2.24.54-3.29a50.3 50.3 0 0 0-7.12-1.97c-4.58-.87-7.85-1.5-10.32-1.5"/></clipPath><radialGradient id="aj" cx="0" cy="0" r="1" fx="0" fy="0" gradientTransform="matrix(283.535 0 0 -283.535 199.5 199.5)" gradientUnits="userSpaceOnUse" spreadMethod="pad"><stop offset="0" stop-color="#d27319"/><stop offset="1" stop-color="#c66b15"/></radialGradient><clipPath id="ag"><path d="M241.66 198.57c-.6.22-1.3.36-2.11.41a32.2 32.2 0 0 0-.34 3.45c-.04 1.24-.18 2.93-.34 4.95l-.08 7.12c-.1-.01-.5-6.99-.6-6.99-3.9.18-1.13 11.76-6.19 11.76a4 4 0 0 1-.73-.07c-3.46-.64-7.87-2.84-13.05-4.65a6.31 6.31 0 0 1-.54 3.3c-2.43 5.28-8.23 8.05-10.28 13.77-.03.07-.2.32-.5.68 5.75 3.58 15.54 8.63 22.4 11.22l2.66 1.12h-.01c-.1 0-.59-.14-1.07-.28a8.6 8.6 0 0 0-1.09-.29c1.82 3.69 2.12 9.27 2.04 12.76a25.41 25.41 0 0 1-2.23 10.6c-1.32 3.16-4.47 9.73-6.54 14.68-1.7 4.05-7.28 19.84-7.65 24.13-.64 5.48 2.72 5.54 6.22 7.6 4.16 2.32 12.25 7.04 12.7 10.39l.12.36c.82 1.7 2.16 9.6 3.7 9.6h.06c.32-2.85-.2-5.1.13-7.97.06-.43.16-.95.25-1.5.06.46.14.9.2 1.26.32 2.87-.1 5.36.22 8.21h.05c1.53 0 2.15-7.08 2.98-8.77l.05-.47c1.23-5.11 11.02-6.53 17.5-9.47v-.1c0-1.91-1.52-3.54-2.29-5.26-.38-.86-.86-1.91-.48-2.87a4.13 4.13 0 0 1 2.3-1.92l.13-.03c1.4-1.4 1.8-2.15 2.15-3.57-.37-1.27-.74-2.46-1.03-3.52-1.58-5.81-2.73-10.75-4.1-16.3l-1.79-7.56c-2.64-9.22-6.7-19.43-2.09-27.8 1.14-2.08 3.08-5.88 3.19-15.57.04-4.31-.69-9.11-1.7-13.85-1.2-.33-2.37-.63-3.44-.94-5.02-1.61-8.8-4.12-8.8-10.05.1-1.37.95-2.58 2.08-3.4h.08c-.66-1.42-1.41-2.78-2.14-4.17m-5.3 120.92c-4.15 0-8.66-10.37-14.12-13.84h-.3c2.41-4.93 3.83-7.44 5.9-15.25.9-3.36 3.12-5.2 4.95-5.2 1.69 0 3.05 1.58 2.71 4.99-.12 1.18-.3 2.26-.57 3.4l-.12.03c-.31 1.08-3.24 6.08-3.05 9.28.18 3.14 1.24 3.76 1.3 3.76-.08 0-2.17.15-2.43 2.46-.31 2.85 3.08 7.24 6.39 7.24a3.2 3.2 0 0 0 3.02-2c0 .29.06.57.17.79.13.25.37.37.57.37.28 0 .49-.2.28-.53a4.1 4.1 0 0 1-.5-1.38c.26.47.72.89 1.15 1.03a.7.7 0 0 0 .22.04c.53 0 .85-.63.27-.76a3.75 3.75 0 0 1-1.08-.45c2.24 0 8.41-.56 8.16-6.67.46-1.3.62-2.45.63-2.86.01-.8-.07-1.6-.28-2.38-.12-.41-.23-.8-.28-1.19.18-.1.37-.14.56-.14.2 0 .4.05.56.15a1.34 1.34 0 0 0-1-.61l-.12.01.04-.23c.05-.16.12-.35.2-.53.27-.61.68-1.13 1.02-1.7.11-.19.14-.45-.05-.6-.18-.13-.4-.2-.59-.34-.73-.5-.24-.65-.24-1.08 0-.28-.21-.67-.5-.67h-.16c-.18 0 .04-.07.08-.34.03-.16.03-.37-.1-.5-.22-.2-.38-.17-.65-.27-.52-.2-.62-.69-.63-1.2-.02-.93-.05-1.85-1.12-1.85h-.13c-.63.04-2.41.66-3.66 1.13-.22-1.97-.65-4.33 2-5.03.39-.1.76-.15 1.13-.15 3.4 0 5.6 4.14 6.33 6.33 1.81 5.58 2.05 11.34 3.87 16.68l-.07.15c-2.37.73-4.9 3.04-6.33 4.14a47.6 47.6 0 0 1-9.5 5.54l-.4.22c-.7.33-1.1.93-1.3 1.65a2.33 2.33 0 0 0-1.23-1.55l-.57-.13a2 2 0 0 1-.42.04"/></clipPath><radialGradient id="ah" cx="0" cy="0" r="1" fx="0" fy="0" gradientTransform="matrix(283.535 0 0 -283.535 199.5 199.5)" gradientUnits="userSpaceOnUse" spreadMethod="pad"><stop offset="0" stop-color="#d88c8c"/><stop offset="1" stop-color="#cc8378"/></radialGradient><clipPath id="ae"><path d="M237.06 145.7a8.98 8.98 0 0 0 1.1 3.98c2.52-.9 3.62-2.1 3.03-3.38-.19-.38-1.97-.53-4.13-.6"/></clipPath><radialGradient id="af" cx="0" cy="0" r="1" fx="0" fy="0" gradientTransform="matrix(283.535 0 0 -283.535 199.5 199.5)" gradientUnits="userSpaceOnUse" spreadMethod="pad"><stop offset="0" stop-color="#6a2603"/><stop offset="1" stop-color="#642403"/></radialGradient><clipPath id="ac"><path d="M245.82 141.75c-1.52.25-3.03.52-4.53.7l-2.03.2a4.57 4.57 0 0 0-2.2 2.65v.4c2.16.07 3.94.22 4.13.6.59 1.29-.52 2.48-3.03 3.38a17.56 17.56 0 0 0 4.92 5.53c.04-.1.07-.15.08-.15l-.04.18.31.23c-.1-.47-.18-.97-.27-1.48-.31-1.8-.78-3.39-.7-5.3.3-2.14 3.68-4.03 3.75-5.94a1.4 1.4 0 0 0-.25-1h-.14"/></clipPath><radialGradient id="ad" cx="0" cy="0" r="1" fx="0" fy="0" gradientTransform="matrix(283.535 0 0 -283.535 199.5 199.5)" gradientUnits="userSpaceOnUse" spreadMethod="pad"><stop offset="0" stop-color="#903f18"/><stop offset="1" stop-color="#883c15"/></radialGradient><clipPath id="aa"><path d="M245.94 141.72l-.12.02h.14l-.02-.02m-6.68.93l-1.64.15-.32.88a7.4 7.4 0 0 0-.24 1.62 4.57 4.57 0 0 1 2.2-2.65"/></clipPath><radialGradient id="ab" cx="0" cy="0" r="1" fx="0" fy="0" gradientTransform="matrix(283.535 0 0 -283.535 199.5 199.5)" gradientUnits="userSpaceOnUse" spreadMethod="pad"><stop offset="0" stop-color="#954d88"/><stop offset="1" stop-color="#8c4874"/></radialGradient><clipPath id="Y"><path d="M244.54 141.73c-1.52 0-3 .1-4.38.54-.3.1-.61.22-.9.38l2.03-.2c1.5-.18 3.01-.45 4.53-.7a49.7 49.7 0 0 0-1.28-.02m-1.37 13.33c-.02 0-.05.06-.1.15l.06.03.04-.18"/></clipPath><radialGradient id="Z" cx="0" cy="0" r="1" fx="0" fy="0" gradientTransform="matrix(283.535 0 0 -283.535 199.5 199.5)" gradientUnits="userSpaceOnUse" spreadMethod="pad"><stop offset="0" stop-color="#d27319"/><stop offset="1" stop-color="#c66b15"/></radialGradient><clipPath id="W"><path d="M242.46 140.6c-1.66 0-3.47.4-4.5 1.1 0 .02.02.03.04.04l-.39 1.06 1.65-.15c.29-.16.6-.29.9-.38 1.37-.44 2.86-.54 4.38-.54.43 0 .85 0 1.28.02l.13-.02c-.58-.79-1.97-1.13-3.5-1.13"/></clipPath><radialGradient id="X" cx="0" cy="0" r="1" fx="0" fy="0" gradientTransform="matrix(283.535 0 0 -283.535 199.5 199.5)" gradientUnits="userSpaceOnUse" spreadMethod="pad"><stop offset="0" stop-color="#d88c8c"/><stop offset="1" stop-color="#cc8378"/></radialGradient><clipPath id="U"><path d="M78.2 140.62c-1 .04-1.99.13-2.92.28-.53 0-2.45.36-2.45 1.43.17 1.08 2.1 1.08 2.8 1.08 1.81.24 3.26 1.15 4.77 1.9 1.63-.62 2.97-1.24 3.62-1.87 1.78-1.19-1.2-.58-3.65-2.25a4.82 4.82 0 0 0-2.17-.57m7.96 12.8a23.24 23.24 0 0 0-3.17.24c.62.36 1.26.67 1.95.84a7.57 7.57 0 0 0 1.49.05h.48a6 6 0 0 1 1.55.16c-.07.6-.18 1.18-.3 1.78a43.2 43.2 0 0 0 2.1-.74c.27-.1 1.33-.26-.22-1.18-.29-.17-.61-.34-.9-.53l-.17-.12-.1-.06-.28-.13a5.73 5.73 0 0 0-1.49-.28c-.3-.02-.62-.03-.94-.03m-5.52 23.21c-3.38 2.12-6.99 4.01-10.39 6.12l-.22.1c.87 2.83 2 5.68 3.87 8.72 5.13 8.37 10.94 7.17 17.63 27.73a106.58 106.58 0 0 0 9.46 20.89 14.8 14.8 0 0 0 7.08-2.46l1.91-1.31c4.12-5 5.73-10.35-.72-20.78-1.46-2.37-6.6-8.05-8.59-11.26-.09-.15-3.7-1.6-5.86-2.5 2.51.97 5.39 1.37 8.27 1.53a54.88 54.88 0 0 0-4.17-4.57c-3.65-3.53-5.38-7.42-7.81-10.28-.3-.34-.6-.66-.91-.97a561.2 561.2 0 0 1-5.48-2.4c-.2 0-1.26.57-2.31 1.14a14.83 14.83 0 0 1-2.33 1.14 687 687 0 0 0 5.47-3.93 25.78 25.78 0 0 1-3.23-3.61 168.9 168.9 0 0 1-1.67-3.3m13.11 24.8"/></clipPath><radialGradient id="V" cx="0" cy="0" r="1" fx="0" fy="0" gradientTransform="matrix(283.535 0 0 -283.535 199.5 199.5)" gradientUnits="userSpaceOnUse" spreadMethod="pad"><stop offset="0" stop-color="#2b7b05"/><stop offset="1" stop-color="#287304"/></radialGradient><clipPath id="S"><path d="M79.47 140.6c-.42 0-.84 0-1.27.02.88.06 1.62.24 2.16.57 2.46 1.67 5.44 1.06 3.66 2.25-.65.63-1.99 1.25-3.62 1.87.82.42 1.66.79 2.59.98.39.04.78.05 1.18.05h1.18c.79 0 1.57.04 2.36.3h.01c.26.91.46 1.75.6 2.54-1.3-.25-2.69-.25-3.97-.25a22.1 22.1 0 0 0-5.89.18c-.44 0-2.06.36-2.06 1.44.14 1.07 1.76 1.07 2.35 1.07 1.62.25 2.89 1.25 4.24 2.04l.67-.08a23.24 23.24 0 0 1 3.44-.13 5.8 5.8 0 0 1 1.49.28c.1.05.2.08.28.13l.1.06.18.12c.28.2.6.36.9.53 1.54.92.48 1.08.22 1.18-.7.26-1.4.5-2.11.74-.54 2.63-1.4 5.53-1.87 10.15-.1 1.08.05 2.16.08 3.24l.12.63a14.3 14.3 0 0 1-4.9 5.51l-.95.61c.55 1.12 1.11 2.21 1.67 3.3l.75.99a25.78 25.78 0 0 0 2.48 2.62c3.65-2.65 7.5-5.5 8.3-6.3 1.12-1.11.2-6.93.4-11.42 0-4.08.2-8.16-.2-12.24-.4-3.62-.84-11.17-5.16-12.16-2.05-.7-4.44-.7-6.6-.7-.86-.08-1.82-.12-2.8-.12m-31.63 40.64c-.5 0-1.04.38-1.58.76-.31.22-.64.4-.98.4a1 1 0 0 1-.55-.18c-.28-.18-.36-.35-.7-.4l-.06-.01c-.18 0-.34.12-.47.25-.17.16-.16.36-.2.36-.03 0-.06-.05-.14-.18-.09-.14-.26-.2-.44-.2a.9.9 0 0 0-.54.17c-.3.23-.26.61-.68.61-.12 0-.27-.03-.48-.1-.25-.08-.47-.23-.72-.3a.4.4 0 0 0-.11-.03c-.22 0-.39.18-.47.38-.3.7-.5 1.43-.86 2.1l-.37.54-.19.19c-.13-.34-.72-.63-1.2-.63H37c.4.18.7.58.77 1.03-.38.23-.83.39-1.29.56-.85.33-1.64.8-2.37 1.35-.39.29-1.32 1.22-2.22 2.53-5.81 3.92-2.11 10-.6 12.05a4.3 4.3 0 0 1-1.16-.68c-.11-.1-.21-.14-.3-.14-.38 0-.54.7-.03 1.07a2.44 2.44 0 0 0 1.73.36c-.44.2-1.04.44-1.6.48-.72.04-.39.9.28.9.05 0 .1 0 .15-.02.27-.04.57-.18.84-.37-.4.7-.76 1.73-.41 2.91.77 2.54 3.84 3.72 6.75 3.72 1.93 0 3.8-.52 4.88-1.51a3.03 3.03 0 0 0 .62-3.91c.02.02.22.11.62.11.66 0 1.86-.25 3.73-1.46a14.47 14.47 0 0 0 4.3-4.68l.23-.07a5.95 5.95 0 0 1 1.68-.25c1.94 0 3.32.94 3.32.94 2.24 3.57 6.52 9.38 10 12.65 3.87 3.67 7.74 7.34 11.41 11.22 6.12 6.52 11.48 15.6 20.86 16.42a10.55 10.55 0 0 0 1.8 0 106.58 106.58 0 0 1-9.46-20.88c-6.7-20.56-12.5-19.36-17.64-27.73a37.03 37.03 0 0 1-3.86-8.72 21.88 21.88 0 0 0-7.4 5.82 15.1 15.1 0 0 1-4.56.73c-3.47 0-6.75-1.36-8.21-4.76a15.11 15.11 0 0 0-1.04-2.75c-.3-.47-.63-.65-.97-.65m42.34 6.35c.31.31.62.63.9.97 2.44 2.86 4.17 6.75 7.82 10.28a54.88 54.88 0 0 1 4.17 4.57c1.81.1 3.63.12 5.35.12h1.32c2.49 0 4.73.02 6.43.34l.58.12c-.87-1.35-1.97-2.46-2.96-3.7a8.25 8.25 0 0 1-1.53-3.74 452.34 452.34 0 0 1-22.08-8.96"/></clipPath><radialGradient id="T" cx="0" cy="0" r="1" fx="0" fy="0" gradientTransform="matrix(283.535 0 0 -283.535 199.5 199.5)" gradientUnits="userSpaceOnUse" spreadMethod="pad"><stop offset="0" stop-color="#3acd24"/><stop offset="1" stop-color="#37bf1e"/></radialGradient><clipPath id="Q"><path d="M243.43 155.47c.46 2.34.97 4.23 1.5 5.93.05-1.68.12-3.27.23-4.73l-.78-.54c-.31-.2-.63-.43-.95-.66"/></clipPath><radialGradient id="R" cx="0" cy="0" r="1" fx="0" fy="0" gradientTransform="matrix(283.535 0 0 -283.535 199.5 199.5)" gradientUnits="userSpaceOnUse" spreadMethod="pad"><stop offset="0" stop-color="#185d1a"/><stop offset="1" stop-color="#165717"/></radialGradient><clipPath id="O"><path d="M245.16 156.67c-.1 1.46-.18 3.05-.23 4.73 1.46 4.67 3.08 7.93 4.13 15.1.07.45.11 1.1.13 1.85 1.7 2 3.18 3.89 4.19 6.42 1.2 3.05 4.2 12.13 11.48 22.08 4.83 6.6 11.87 12.25 12.63 15.12 0 0 .64 2.1.39 4.02-.2 1.43-3.3 13.01-5.18 25.64 1.27 2.62 2.9 4.91 5.01 6.19a4 4 0 0 0 1.87.5c1.9 0 3.54-1.5 4.77-3.01 1.82-2.06 3.3-4.2 5.01-6.25 2.33-5.15 4.53-10.1 5.84-13.23-.84.44-1.6.83-2.23 1.18-3.6 2.15-7.72 4.12-10.77 7l-.03-.47c-3.34-9-3.8-14.76-3.9-18.98 1.7 1.6 3.1 2.86 3.1 2.86.05.53.88 6.02 1.5 7.27.34.7.78.94 1.26.94a4.4 4.4 0 0 0 1.9-.72c.38-.2.76-.36 1.13-.36.28 0 .55.09.81.3.32.27.38.48.8.6.04.02.08.02.13.02.2 0 .4-.12.56-.24.23-.18.25-.42.3-.42.03 0 .07.06.15.23.1.23.37.33.64.33.2 0 .41-.05.56-.14.4-.23.42-.67.85-.67.16 0 .37.05.67.2.29.13.53.35.83.48a.5.5 0 0 0 .2.04c.24 0 .46-.19.58-.4.47-.83.82-1.7 1.36-2.48.18-.22.36-.43.53-.61l.26-.21c.13.47.92.95 1.54.95-.48-.27-.8-.8-.82-1.37.52-.23 1.08-.36 1.67-.51 1.1-.29 2.16-.75 3.14-1.34.22-.13.6-.4 1.06-.79a5.46 5.46 0 0 1-1.41 2.9l.8-.64a15.86 15.86 0 0 1 5.77-2.64c2.93-6.23 4.67-12.4 3.84-19.48l-.2.44a87.52 87.52 0 0 0 .37-4.16c-1.66.76-3.18 1.47-4.41 2.1-2.6 1.33-4.73 2.81-7.88 2.81-1.84 0-4.03-.5-6.86-1.85-.66-.31-1.35-.64-2.05-.99-.56.23-1.27.55-2.14.99a12.13 12.13 0 0 0-4.58 4.37c.1-1.56-.23-3.1-.75-4.48.47-.94 1.02-2.74 1.6-4.92-3.2-2.46-6.25-4.9-8.75-7.09a99 99 0 0 1-.66 2.52 31.65 31.65 0 0 0-4.95-2.66c-2.51-1.08-4.85-1.98-6.64-3.95a20.68 20.68 0 0 1-4.67-12.38c.02-.26.06-.52.1-.8-2.03-3.3-3.58-6.86-5.37-10.42-2.35-4.89-4.7-8.4-8.98-11.52m53.08 77.45c-.8.5-1.6.95-2.39 1.37-.05.27-.07.45-.01.45h.02a66 66 0 0 0 2.38-1.82"/></clipPath><radialGradient id="P" cx="0" cy="0" r="1" fx="0" fy="0" gradientTransform="matrix(283.535 0 0 -283.535 199.5 199.5)" gradientUnits="userSpaceOnUse" spreadMethod="pad"><stop offset="0" stop-color="#187196"/><stop offset="1" stop-color="#176a80"/></radialGradient><clipPath id="M"><path d="M344.59 141.84c-2.08 0-4.21.64-4.18 3.5l-.02.14c-.1 3.16-1.8 6.02-2.65 9.33-1.89 6.68-1.9 13.92-3.56 20.74-1.62 7.01-1.42 15.2-6.02 21.08l-.51.58c-3.68 2.45-10.3 5.34-15.5 7.73a87.52 87.52 0 0 1-.37 4.16l.2-.44c.83 7.08-.92 13.25-3.84 19.48 2.99-.76 6.23-.96 9.09-.96 1.45 0 2.8.05 3.96.1 1.17.05 2.16.1 2.88.1.37 0 .68-.01.9-.05 1.75-.14 4.3-.07 6.25-.72-.47 3.28.25 8.47.25 11.06-.19 7.27-.95 14.35.58 21.82.76 3.45 2.1 6.7 2.87 10.34.77 3.25 2.1 7.46 1.91 10.9l.09.33h-.06c.12 2.15.36 4.17.93 6.32.34 1.58-.13 2.48 4.02 4.78.25.13.47.2.66.2 2.23 0 1.3-8.29 1.5-10.37l.04-.27c.79.67 1.59 1.37 2.53 1.37.5 0 1.04-.2 1.63-.69-.75-.52-1.23-.78-1.83-1.6-.6-.56-1.31-1.43-1.91-2-1.05-.92-2.43-.93-3.39-3.23v-.2c-.95-3.82-1.89-15.02-2.68-18.94-1.81-9 2.68-21.53 3.07-27.95.15-2.51-.3-4.25-.77-6.7-.66-3.47-1.13-4.1-1.15-6.1l.04-.08c1.05-.25 2.01-.34 2.81-.34 1.43 0 2.34.27 2.34.27-.04.4-.18 4.6.1 5.61.2.69.58.9 1.05.9.39 0 .83-.14 1.28-.3.23-.07.46-.12.68-.12.28 0 .55.09.77.35.2.24.22.4.5.56a.4.4 0 0 0 .18.04.8.8 0 0 0 .37-.12c.2-.1.24-.26.28-.26.02 0 .04.05.08.2.06.23.35.34.6.34.1 0 .2-.02.27-.04.3-.11.39-.4.65-.4.13 0 .3.07.54.25.2.15.35.34.56.48.07.04.14.06.2.06.16 0 .32-.1.43-.22.46-.55.84-1.15 1.35-1.65l.48-.39.22-.12c.03.37.56.84 1.01.92a1.26 1.26 0 0 1-.4-1.13c.4-.1.84-.12 1.3-.15.86-.06 1.7-.26 2.52-.56.42-.15 1.52-.73 2.69-1.66 6.3-1.93 4.66-8.42 3.86-10.69.3.26.64.58.85.94.1.16.21.22.32.22.31 0 .57-.54.24-.97-.3-.4-.9-.71-1.45-.8.24-.03.53-.06.83-.06a3.3 3.3 0 0 1 .89.09c.53 0 .38-.86-.3-.94l-.18-.01c-.21 0-.44.04-.67.11a3.45 3.45 0 0 0 1.17-2.5c0-3.33-4.34-5.63-7.67-5.63a5.1 5.1 0 0 0-2.2.44 2.85 2.85 0 0 0-1.64 3.34c0-.04-.44-.42-1.64-.42-.64 0-1.5.11-2.64.44a14.08 14.08 0 0 0-6.23 4.11c-.36.06-.77.1-1.22.1a5.57 5.57 0 0 1-3.56-1.2c-1.91-1.54-.64-4.26-.64-4.26 1.6-3.48.1-8.12-.1-11.8-.17-3.48.94-14.69 1.14-16.5a25.9 25.9 0 0 1 1.82-6.06c1.1-3.96.88-6.85.59-10.9-.12-1.64-.32-3.9-.2-6.05l.22-.5c1.13-2.31 4.76-2.73 7.05-3.33 1.33-.4 1.48-.95 3.01-.97h.97c1 0 1.99-.07 2.85-.8-1.08-1.31-2.58-1.64-4.18-1.64-.83 0-1.7.09-2.54.18-.85.09-1.68.18-2.45.18-.4 0-.8-.02-1.16-.09-.74-.12-1.84-.31-2.96-.31m-85.08 36.77c-.04.28-.08.54-.1.8 0 4.13 1.98 9.33 4.67 12.38 1.8 1.97 4.12 2.87 6.64 3.95a31.3 31.3 0 0 1 4.95 2.66 99 99 0 0 0 .65-2.52 64.9 64.9 0 0 1-3.04-2.81c-4.02-3.64-8.61-7.27-11.86-11.68-.69-.9-1.32-1.83-1.9-2.78m25.55 24.36a30.34 30.34 0 0 1-1.59 4.92c.52 1.39.85 2.92.75 4.48 1.1-1.7 2.6-3.39 4.58-4.37a28.3 28.3 0 0 1 2.14-.99 26.3 26.3 0 0 1-2.13-1.18c-1.25-.94-2.5-1.9-3.75-2.86m-6.8 21.59c.1 4.22.56 9.99 3.9 18.98l.03.46c3.05-2.87 7.18-4.84 10.77-7 .62-.34 1.4-.73 2.23-1.17a51.94 51.94 0 0 0 1.07-2.67c.1 0-.06.7-.22 1.4l-.2.93c.78-.42 1.6-.87 2.38-1.37 1.2-.95 2.37-1.93 3.34-2.7a5.46 5.46 0 0 0 1.4-2.9c-.45.38-.83.66-1.05.8-.98.58-2.03 1.04-3.14 1.33-.59.15-1.15.28-1.67.5.03.58.34 1.11.82 1.38-.62 0-1.41-.48-1.54-.95l-.26.21c-.17.18-.35.4-.53.61-.54.78-.9 1.65-1.36 2.47-.12.22-.34.4-.58.4a.48.48 0 0 1-.2-.03c-.3-.13-.54-.35-.83-.49-.3-.14-.5-.2-.67-.2-.43 0-.45.45-.85.68-.15.09-.36.14-.56.14-.27 0-.53-.1-.64-.33-.08-.17-.12-.23-.15-.23-.05 0-.07.24-.3.42-.16.12-.35.24-.56.24a.5.5 0 0 1-.14-.02c-.4-.12-.47-.33-.79-.6-.26-.21-.53-.3-.8-.3-.38 0-.76.16-1.13.36a4.5 4.5 0 0 1-1.9.72c-.5 0-.93-.24-1.27-.94-.62-1.25-1.45-6.74-1.5-7.27 0 0-1.4-1.25-3.1-2.86m11.1 24.5c-1.72 2.06-3.2 4.2-5.02 6.25-1.23 1.5-2.87 3-4.77 3a3.9 3.9 0 0 1-1.87-.5c-2.1-1.27-3.74-3.56-5.01-6.18-.64 4.28-1.14 8.67-1.33 12.84-.28 6.04-4.83 8.65-6.5 14.55-1.92 6.7-1.16 11.86-3.07 20.86l-.4 1.85c1.15 3.97 2.33 8.66 1.2 12.06l-.79.52c-.67.42-1.42.8-2.22 1.17-.12 1.5-.86 3-1.05 4.5-.1 1.62-.48 3.83 1.06 4.78 1.23.85 2.92 1.85 3.7 1.85h.03c.77-.03 1.27-2.88 1.27-2.88.96-2.3.26-7.39.26-9.69 0-3.44 1.34-5.16 2.49-9 1.88-6.27 4.6-10.14 6.7-16.45 1.03-3.1 4.78-16.27 6.12-19.34.32-.74 4.96-10.79 9.2-20.19"/></clipPath><radialGradient id="N" cx="0" cy="0" r="1" fx="0" fy="0" gradientTransform="matrix(283.535 0 0 -283.535 199.5 199.5)" gradientUnits="userSpaceOnUse" spreadMethod="pad"><stop offset="0" stop-color="#24cd9a"/><stop offset="1" stop-color="#21bf84"/></radialGradient><clipPath id="K"><path d="M231.6 143.28l-2 .16c.02.45.1.94.28 1.46.61-.54 1.4-.96 1.72-1.61m-1.74 2.3a7.97 7.97 0 0 0 1.63 5.4h.04c1.9-.2 3.56-.47 4.95-.81a7.95 7.95 0 0 1-.27-1.74c-.05-.8.02-1.8.17-2.75-2.37-.05-5.03-.02-6.52-.1"/></clipPath><radialGradient id="L" cx="0" cy="0" r="1" fx="0" fy="0" gradientTransform="matrix(283.535 0 0 -283.535 199.5 199.5)" gradientUnits="userSpaceOnUse" spreadMethod="pad"><stop offset="0" stop-color="#124414"/><stop offset="1" stop-color="#114011"/></radialGradient><clipPath id="I"><path d="M238.5 155.57a20.79 20.79 0 0 1-.9 4.12c.47.79.95 1.64 1.46 2.57a42 42 0 0 0-.26-5.1 9.81 9.81 0 0 0-.3-1.59"/></clipPath><radialGradient id="J" cx="0" cy="0" r="1" fx="0" fy="0" gradientTransform="matrix(283.535 0 0 -283.535 199.5 199.5)" gradientUnits="userSpaceOnUse" spreadMethod="pad"><stop offset="0" stop-color="#185d1a"/><stop offset="1" stop-color="#165717"/></radialGradient><clipPath id="G"><path d="M237.07 142.85c-1.64.14-3.5.28-5.47.43-.32.66-1.1 1.08-1.72 1.62 0 .02 0 .04.02.06v.13l-.04.5c1.49.08 4.15.05 6.52.1.16-1.08.41-2.12.7-2.84m-.6 7.33c-1.38.34-3.04.62-4.95.8l-.04.02c1.34 1.97 3.46 4.27 6.1 8.69.43-1.37.76-2.68.9-4.12-.53-1.93-1.53-3.57-2.01-5.4"/></clipPath><radialGradient id="H" cx="0" cy="0" r="1" fx="0" fy="0" gradientTransform="matrix(283.535 0 0 -283.535 199.5 199.5)" gradientUnits="userSpaceOnUse" spreadMethod="pad"><stop offset="0" stop-color="#187196"/><stop offset="1" stop-color="#176a80"/></radialGradient><clipPath id="E"><path d="M231.54 142.67a4.8 4.8 0 0 0-1.94.62v.15l2-.15c.09-.19.14-.39.14-.61l-.2-.01"/></clipPath><radialGradient id="F" cx="0" cy="0" r="1" fx="0" fy="0" gradientTransform="matrix(283.535 0 0 -283.535 199.5 199.5)" gradientUnits="userSpaceOnUse" spreadMethod="pad"><stop offset="0" stop-color="#1a7b14"/><stop offset="1" stop-color="#197311"/></radialGradient><clipPath id="C"><path d="M232.47 140.6c-1.86 0-2.87 1.07-2.87 2.7a4.8 4.8 0 0 1 1.94-.63h.2c0 .23-.05.43-.14.62l5.48-.44.02-.06c.04-.22.15-.43.32-.63a2.93 2.93 0 0 1 .53-.46c-2-1.36-2.58-.95-5-1.08a5.48 5.48 0 0 0-.48-.02"/></clipPath><radialGradient id="D" cx="0" cy="0" r="1" fx="0" fy="0" gradientTransform="matrix(283.535 0 0 -283.535 199.5 199.5)" gradientUnits="userSpaceOnUse" spreadMethod="pad"><stop offset="0" stop-color="#24cd9a"/><stop offset="1" stop-color="#21bf84"/></radialGradient><clipPath id="A"><path d="M229.6 143.44l-.34.02c-1.8.93-4.22 2.43-7.43 3.2l-1.63.73c-2.92 1.54-5.32 3.77-8.27 5.78-3.4 2.33-7.08 4.8-10.71 6.83 2.6 1.47 6.08 2.3 9.2 2.84 1.11-1.22 2.22-2.45 3.31-3.68a23.6 23.6 0 0 1 7.19-1.15h.12c.92 0 1.66.1 2.2.19 1.02-.02 2.84-.07 5.2-.28.94-.1 1.95-.23 3-.45a8.76 8.76 0 0 0 2.98-1.09c.4-.25-.13-.82-.13-.82-1.23-.28-2.63-.49-4.04-.71l-3.03-.48-1.02-.16-1.4-.25c-.9-.18-1.65-.4-2.44-.57l-1.26-.15c2.7-1.26 5.8-2.1 8.28-2.1.33 0 .65 0 .95.04l1.16-.19a7.97 7.97 0 0 1-1.63-5.4c-.21 0-.4-.01-.56-.03.15-.25.35-.46.58-.66a5.43 5.43 0 0 1-.28-1.46"/></clipPath><radialGradient id="B" cx="0" cy="0" r="1" fx="0" fy="0" gradientTransform="matrix(283.535 0 0 -283.535 199.5 199.5)" gradientUnits="userSpaceOnUse" spreadMethod="pad"><stop offset="0" stop-color="#805420"/><stop offset="1" stop-color="#784f1b"/></radialGradient><clipPath id="y"><path d="M229.26 143.46c-9.53.72-20.65 1.5-23.14 2.22-3.59 1.07-8.43 3.59-8.79 7.71-.4 3.05 1.3 5.14 3.89 6.6 3.63-2.02 7.31-4.5 10.71-6.82 2.95-2.01 5.35-4.24 8.27-5.78l1.63-.72c3.21-.78 5.64-2.28 7.43-3.2"/></clipPath><radialGradient id="z" cx="0" cy="0" r="1" fx="0" fy="0" gradientTransform="matrix(283.535 0 0 -283.535 199.5 199.5)" gradientUnits="userSpaceOnUse" spreadMethod="pad"><stop offset="0" stop-color="#ad8bf5"/><stop offset="1" stop-color="#a382d1"/></radialGradient><clipPath id="w"><path d="M254.62 141.08c-1.13.22-2.1.44-2.63.5a17.9 17.9 0 0 1-3.18.24c-.7 0-1.42-.03-2.13-.05l-.72-.02c.2.28.29.6.25 1-.07 1.91-3.46 3.8-3.76 5.94-.07 1.91.4 3.5.7 5.3l.28 1.48.95.66.78.54c.16-2.25.41-4.18.77-5.62l.05-.74c4.4-3.22 10.41-6.2 15.83-6.2.04-.17.08-.33.1-.48a15.65 15.65 0 0 0-7.3-2.55m-17.02 18.6c-.47 1.54-1.06 3.14-1.65 5.1 1-.07 2.01-.17 3.03-.3.05-.7.08-1.44.09-2.22-.5-.93-1-1.78-1.47-2.57m1.3 21.87c-.12.6-.21 1.2-.3 1.8-.17 3.58 0 7.9 1.26 11.3l.28.7c.4-2.47.7-4.67.28-6.05-.3-1.55-1-4.38-1.53-7.75"/></clipPath><radialGradient id="x" cx="0" cy="0" r="1" fx="0" fy="0" gradientTransform="matrix(283.535 0 0 -283.535 199.5 199.5)" gradientUnits="userSpaceOnUse" spreadMethod="pad"><stop offset="0" stop-color="#a8722b"/><stop offset="1" stop-color="#9e6b25"/></radialGradient><clipPath id="u"><path d="M312.12 140.6c-1.47 0-2.92.11-4.26.23-9.87.72-20.26.69-30.3 1.76-4.4.33-8.92.8-13.2 1.96-.3.07 2.8 3.44 2.52 3.52-.25-.2-3.89-3.68-4.13-3.86l-.83-.58-.11.48c-5.41 0-11.43 2.98-15.83 6.2l-.05.74a35.3 35.3 0 0 0-.77 5.62c4.28 3.12 6.63 6.63 8.98 11.52 1.79 3.56 3.34 7.13 5.38 10.42.34-2.01 1.4-4.33 3.3-5.12l1.12-.62c2.1-.06 4.17-.38 6.24-1.36 3.38-1.6 5.08-4.61 5.63-8.34.85-.14 1.71-.32 2.56-.51.5 2.97 1.69 9.3 2.72 12.01.94 2.69.02 5.36-.91 8-1.87 5.29-3.06 10.05-3.86 13.21 2.5 2.19 5.57 4.63 8.75 7.09 1.36-5.18 2.8-12.47 3.33-15.09.67-3.65 3.1-7.69 1.84-11.31-1.19-3.26-4.54-10.95-5.96-15.48l2.4-.7c5.39-1.62 10.77-3.41 16.51-3.59.94-.1 1.93-.2 2.94-.2.75 0 1.5.05 2.27.2l.46.4a9.34 9.34 0 0 0-2.8 3.55c-1.8 4.12-.53 9.5-.53 14 0 3.76-.36 7.71-.54 11.66-.18 1.97-.18 3.94-.18 5.92 0 1.61.54 3.59.36 5.02-.36 2.12-3.65 2.33-5.3 3.19l-.46-.01c-1.87 0-3.6.41-4.77 1.27a3.77 3.77 0 0 0-1.33 4.75c-.01-.03-.07-.1-.33-.1-.31 0-.9.1-2.03.56.7.35 1.4.68 2.05.99 2.83 1.34 5.02 1.85 6.86 1.85 3.14 0 5.28-1.48 7.88-2.8 1.23-.64 2.74-1.35 4.4-2.11.36-5.22.33-10.42 1.28-15.48 1.97-11.85 8.97-22.43 10.05-34.45.36-3.95.36-8.97-2.87-11.85-2.3-2.06-5.43-2.56-8.48-2.56m-59.37.4c-2.28 0-4.55.34-6.8.72l.01.03.72.02c.71.02 1.43.05 2.13.05 1.09 0 2.15-.06 3.18-.24.54-.06 1.5-.28 2.63-.5-.63-.06-1.25-.09-1.87-.09m-22.87 3.91c-.23.2-.44.41-.58.66l.56.04c0-.17.02-.34.04-.51v-.13l-.02-.06m1.6 6.1l-1.15.18c-.3-.03-.62-.05-.95-.05-2.49 0-5.57.85-8.28 2.1l1.26.16c.79.18 1.53.39 2.44.57l1.4.24 1.02.17 3.03.48c1.41.22 2.8.43 4.04.71 0 0 .53.57.13.82-.81.56-1.96.87-2.98 1.1a28.4 28.4 0 0 1-3 .44 66.8 66.8 0 0 1-5.2.27c-.54-.09-1.28-.17-2.2-.18h-.12c-1.82 0-4.32.23-7.19 1.15l-3.31 3.68c2.17.37 4.17.6 5.57.78a106.4 106.4 0 0 0 15.34 1.32c1.53 0 3.06-.05 4.61-.16.59-1.96 1.18-3.56 1.65-5.1-2.64-4.4-4.76-6.71-6.1-8.69m17.7 27.36c.15 4.95-.5 15.13-.5 15.13-.3 3.9 3.06 13.6 5.2 23.65 3.64 1 7.56 2.27 9.6 4.92a97.8 97.8 0 0 1 5.61 18.54c.73 3.13 1.82 7.4 3.6 11.04 1.88-12.63 4.99-24.2 5.18-25.64.25-1.91-.39-4.02-.39-4.02-.76-2.87-7.8-8.52-12.63-15.12-7.27-9.95-10.28-19.04-11.49-22.08-1-2.53-2.48-4.42-4.18-6.42m58.95 49.8a15.86 15.86 0 0 0-6.57 3.27 14.92 14.92 0 0 1-3.33 2.7 61.17 61.17 0 0 1-2.4 1.82c-.06 0-.04-.18.01-.45l-.65.34a585.67 585.67 0 0 1-5.84 13.23c.83-1 1.71-1.97 2.7-2.9 2.7-2.52 5.93-4.49 8.62-7a30.6 30.6 0 0 0 6.64-9.33c.28-.57.56-1.13.82-1.69"/></clipPath><radialGradient id="v" cx="0" cy="0" r="1" fx="0" fy="0" gradientTransform="matrix(283.535 0 0 -283.535 199.5 199.5)" gradientUnits="userSpaceOnUse" spreadMethod="pad"><stop offset="0" stop-color="#ad8bf5"/><stop offset="1" stop-color="#a382d1"/></radialGradient><clipPath id="s"><path d="M229.6 143.3l-.34.16.34-.02v-.15"/></clipPath><radialGradient id="t" cx="0" cy="0" r="1" fx="0" fy="0" gradientTransform="matrix(283.535 0 0 -283.535 199.5 199.5)" gradientUnits="userSpaceOnUse" spreadMethod="pad"><stop offset="0" stop-color="#ba9821"/><stop offset="1" stop-color="#af8e1c"/></radialGradient><clipPath id="q"><path d="M196.39 163.4c-.9 0-1.77.1-2.6.3a42.5 42.5 0 0 0-2.9 1.72c-.3-.04-.6-.06-.92-.06-1.44 0-3 .46-4.65 1.65a14.2 14.2 0 0 0-3.57 1.36c-.89.55-1.7 1.22-2.39 2-.37.42-.71.82-1.1 1.15a1.53 1.53 0 0 1-.8-1.23c-.17.34-.2.85-.08 1.23 3.95 5.48 8.42 11.02 10.63 13.32 1.32 1.45 2.69 2.8 3.72 4.14a9 9 0 0 0 1.97-1.1c3.3-2.43 3.08-3 3.04-3.06a3.54 3.54 0 0 0 2.67 1.34c.52 0 1.1-.13 1.75-.45 3.74-1.9 6.26-10.25 2.27-13.28a3.87 3.87 0 0 0-2.22-.79 28.5 28.5 0 0 0 2.3-1.84 81.89 81.89 0 0 0 3.45-3.3c-3.77-1.9-7.4-3.1-10.57-3.1"/></clipPath><radialGradient id="r" cx="0" cy="0" r="1" fx="0" fy="0" gradientTransform="matrix(283.535 0 0 -283.535 199.5 199.5)" gradientUnits="userSpaceOnUse" spreadMethod="pad"><stop offset="0" stop-color="#b57d06"/><stop offset="1" stop-color="#aa7505"/></radialGradient><clipPath id="o"><path d="M201.22 160c-.87.48-1.74.95-2.6 1.37-1.64.75-3.26 1.5-4.83 2.34.83-.21 1.7-.3 2.6-.3 3.16 0 6.8 1.19 10.57 3.08 1.17-1.19 2.32-2.41 3.46-3.65-3.12-.53-6.6-1.37-9.2-2.84"/></clipPath><radialGradient id="p" cx="0" cy="0" r="1" fx="0" fy="0" gradientTransform="matrix(283.535 0 0 -283.535 199.5 199.5)" gradientUnits="userSpaceOnUse" spreadMethod="pad"><stop offset="0" stop-color="#ba9821"/><stop offset="1" stop-color="#af8e1c"/></radialGradient><clipPath id="m"><path d="M170.65 178.95l-.05.04c-1.05.71-2.07 1.42-1.13 2.68.48.65 2.02 1.88 3.41 2.9h.01c.02 0 .07-.01.13-.04a21.15 21.15 0 0 1-2.37-5.58m2.58 6.32c-2.49 1.87-5.49 4.05-7.12 5.46-.74.36-1.57.68-2.4.93-.1 1.22-.28 2.45-.56 3.7a54.89 54.89 0 0 0-.94 6.4l.24.14v.01a58.23 58.23 0 0 1 10.4-7.67c-.2-2.96.18-5.94.38-8.97m-29.17 53.06c-2.96 1.03-5.57 2.4-8.57 3.4-2.08.63-5.8 1.33-6.83 3.2l-.1-.05a6.94 6.94 0 0 0-1.24-.1c-3.86 0-7.06 3.29-4.72 8.4.21.47.46.94.7 1.42a63.7 63.7 0 0 0 1.92-.37c8.86-1.38 11.9-8.73 14.44-11.27 1.4-1.62 2.9-3.13 4.4-4.63"/></clipPath><radialGradient id="n" cx="0" cy="0" r="1" fx="0" fy="0" gradientTransform="matrix(283.535 0 0 -283.535 199.5 199.5)" gradientUnits="userSpaceOnUse" spreadMethod="pad"><stop offset="0" stop-color="#186518"/><stop offset="1" stop-color="#175e15"/></radialGradient><clipPath id="k"><path d="M77.44 140.6c-4.28 0-10.9 2.07-13.52 2.26l-.55.02c-.87 0-1.7-.13-2.5-.26s-1.55-.26-2.27-.26c-1.29 0-2.45.43-3.45 2.04-1.17 1.81.15 4.7 1.86 6.61a19.76 19.76 0 0 1 2.68 3.51c2.23 4.54 3.5 8.13 5.5 12.67 2.56 5.78 3.3 10.7 4.84 15.66l.22-.1c3.4-2.1 7.01-4 10.4-6.12a83.2 83.2 0 0 1-3.55-8.13 27.35 27.35 0 0 1-1.02-3.33c-.12-.61-.26-1.2-.18-2.02a3.4 3.4 0 0 1 1.17-2.04 11.75 11.75 0 0 1 3.23-1.93c1.1-.47 2.21-.87 3.33-1.24 1.5-.5 3.03-.96 4.53-1.45.12-.6.22-1.19.3-1.78a6 6 0 0 0-1.55-.16h-.96c-.34 0-.67 0-1-.05a7.42 7.42 0 0 1-1.96-.84c-2.15.27-4.32.7-6.54 1.09-1.16.18-2.3.44-3.64.44h-.3l-.43-.02c-.81 0-1.8.06-2.7.08-.2 0 .94 4.64.75 4.64-.59-1.68-2.21-7.58-2.04-8.24.72-2.68 7.7-4.57 12.3-6.34-1.5-.75-2.95-1.66-4.76-1.9-.7 0-2.63 0-2.8-1.08 0-1.07 1.92-1.43 2.45-1.43.93-.15 1.93-.24 2.92-.28l-.76-.02m8.1 42.94a687 687 0 0 1-5.45 3.94c.2 0 1.26-.58 2.31-1.15a15 15 0 0 1 2.33-1.14c1.86.83 3.68 1.63 5.46 2.4-1.38-1.36-2.98-2.5-4.65-4.05m87.88 1.59l-.19.14c-.2 3.03-.58 6.01-.38 8.97 1.69-.89 3.72-1.64 5.37-2.32.98-.37 2.33-.74 2.7-1.72l-.15.02c-3.54-1.19-5.79-2.93-7.35-5.1m-9.72 6.54a16 16 0 0 1-4.31.75c-1.78 0-3.62-.1-5.47-.1-2.76 0-5.53.23-8.06 1.43-3.55 2.03-4.78 5.5-4.76 9.2l-.33.33-.2.3c.77.14 1.54.18 2.32.18.7 0 1.4-.04 2.12-.07a27.08 27.08 0 0 1 2.43-.07c1.1-1.75 4.68-3.07 7.1-3.22a22 22 0 0 1 1.43-.05c2.02 0 4.22.3 6.24 1.42.28-2.68.6-5.07.94-6.4.28-1.25.45-2.48.55-3.7m-68.89 10.22c2.16.9 5.77 2.35 5.86 2.5 2 3.2 7.13 8.9 8.6 11.26 6.44 10.43 4.83 15.78.71 20.78l-1.91 1.3a14.8 14.8 0 0 1-7.08 2.47c1.92 3.2 4 6.19 6.17 8.75 4.15 4.6 7.36 6.14 11.49 6.14 1.42 0 2.95-.18 4.66-.48-.25-.48-.5-.95-.71-1.43-2.34-5.1.86-8.4 4.72-8.4.4 0 .82.04 1.24.11l.1.05c1.04-1.87 4.75-2.57 6.83-3.2 3-1 5.6-2.37 8.57-3.4l1.39-1.39c-.33-2.6-.49-5.36-.49-7.95 0-1.59-.24-3.5-.19-5.26-2.13-2.43-5.61-4.4-8.55-5.45l-1.38-.51c-3.4 7.53-8.79 12.53-10.98 13.68l-.28.68c-3.26-5.28-13.32-20.1-20.5-28.72a27.72 27.72 0 0 1-8.27-1.53"/></clipPath><radialGradient id="l" cx="0" cy="0" r="1" fx="0" fy="0" gradientTransform="matrix(283.535 0 0 -283.535 199.5 199.5)" gradientUnits="userSpaceOnUse" spreadMethod="pad"><stop offset="0" stop-color="#ba9821"/><stop offset="1" stop-color="#af8e1c"/></radialGradient><clipPath id="i"><path d="M173.16 230.1l-.37.01c-3.58.32-8.25 6.18-6.03 9.87a3.6 3.6 0 0 0 2.37 1.61c-.31.07-.6.2-.82.36-.47.37-.3 1.05.05 1.05.1 0 .2-.04.31-.15.4-.38.96-.66 1.4-.84-.45.37-.82.97-.87 1.48-.06.46.3.78.57.78.17 0 .32-.12.32-.41 0-.43.13-.9.26-1.29.45 2.19 2.07 7.73 7.15 7.73.6 0 1.26-.08 1.98-.25a15 15 0 0 0 1.99.13 7.84 7.84 0 0 0 3.83-.92c.43-.22.83-.43 1.25-.57.28.35.37.83.23 1.23.36-.31.58-1 .41-1.36h.27c.18.02.4.04.63.08.59.15 1.13.4 1.7.61a84.02 84.02 0 0 0-10.07-13.18c.08-1.73.08-3.54 0-5.4l-.29.07c-3.4.9-3.41 1.41-3.4 1.48a2.94 2.94 0 0 0-2.87-2.12m19.88 24.55c.44 3.04.76 5.77-.63 8.9-1.17 2.47-2.63 4.79-4.01 7.17.9.71 1.59 1.3 2 1.8.36.36 1.58 1.72 2.36 2.96l.13.36-.3-.01c-2.07 0-4.96 1.95-6.15 3.34-1.87 1.66-2.7 4.57-3.95 6.86-1.32 2.28-4.11 10.15-7.66 12.25l-.19.01c-.3-.18-.55-.3-.8-.39l-.01.2.03.38c-.4.66-.54 1.18-.2 1.4.08.05.16.07.26.07.35 0 .86-.28 1.44-.7l.31.09c.22.22.48.31.76.31.42 0 .9-.2 1.4-.52l.16.03c.1.08.23.12.38.12.85 0 2.33-1.24 3.01-2.08 3.57-4.33 4.14-8.2 4.14-8.2 3.41-6.84 11.21-14.32 14.81-21.78-.54-.82-1.1-1.62-1.62-2.4-1.3-2.23-3.22-5.93-5.67-10.17"/></clipPath><radialGradient id="j" cx="0" cy="0" r="1" fx="0" fy="0" gradientTransform="matrix(283.535 0 0 -283.535 199.5 199.5)" gradientUnits="userSpaceOnUse" spreadMethod="pad"><stop offset="0" stop-color="#208921"/><stop offset="1" stop-color="#1e801c"/></radialGradient><clipPath id="g"><path d="M238.97 164.48c-1.02.13-2.03.23-3.03.3-.2.65-.39 1.33-.58 2.07-.92 3.44-1.84 6.66-1.6 10.1.45 2.99 1.37 8.73 1.37 11.49l-.63-.52c-5.17-5.17-16.89-16.08-27.54-21.43a81.89 81.89 0 0 1-3.45 3.3 26.6 26.6 0 0 1-2.3 1.85c.7.03 1.5.23 2.22.79 4 3.03 1.47 11.38-2.27 13.28-.65.32-1.23.45-1.75.45a3.54 3.54 0 0 1-2.67-1.34c.04.07.25.63-3.05 3.07a9 9 0 0 1-1.96 1.09c1.83 2.37 2.62 4.75.34 7.74.36 1.2.58 2.58.68 4.24.43 7.23-4.38 21.3-1.53 30.55-1.3.48-2.38.82-3.12 1-1.14-.65-3.86-2.02-6.7-2.02a7.9 7.9 0 0 0-1.67.18 64.7 64.7 0 0 1-.01 5.4 84.02 84.02 0 0 1 10.06 13.18l.39.14c.07.03.16.05.24.05.17 0 .33-.07.4-.24.11-.23.15-.48.25-.72.2-.45.36-.55.54-.55l.22.03c.07.02.16.03.24.03h.13c.15-.04.3-.13.42-.24-.09 1.33-.1 2.62.03 3.86.1 1.06.26 2.06.4 3.04 2.45 4.24 4.36 7.93 5.68 10.17.51.78 1.07 1.58 1.61 2.4.52-1.07.95-2.14 1.27-3.2 1.84-6.44.68-14.48.68-21.14 0-2.46.09-4.67.69-6.78h.06a26.89 26.89 0 0 0 3.87-3.8l-.42-.26c-4.8-3.07-16.45-9.96-12.23-17.22 1.6-2.75 3.44-3.75 6.53-3.75 2.47 0 5.74.64 10.32 1.51a50.3 50.3 0 0 1 7.12 1.97 5.12 5.12 0 0 0-3.92-4.55l-.07-.2c0-4.13-.69-8.27-2.99-11.95-1.94-3.24-5.45-6.62-5.72-11.36 11.6 8.02 27.75 12.52 32.83 12.52a13.43 13.43 0 0 0 1.2-.03c.17-1.23.39-2.45.58-3.62-.1-.23-.19-.46-.27-.7-1.26-3.4-1.44-7.72-1.26-11.3.08-.6.18-1.2.29-1.8-.47-2.96-.8-6.32-.61-9.57.16-2.77.52-4.97.69-7.5M188.4 270.71a43.64 43.64 0 0 0-2.88 5.7c-.86 2.2-2.13 7.35-3.29 8.34a24.5 24.5 0 0 1-4.52 2.8c-1.82.9-2.03 2.9-3.85 3.27.3.54.73.73 1.2.73.97 0 2.14-.81 2.76-1.1 0 0-3.62 3.81-3.97 7.44.24.09.5.21.8.4l.18-.02c3.55-2.1 6.34-9.97 7.66-12.25 1.25-2.28 2.08-5.2 3.95-6.86 1.2-1.39 4.08-3.34 6.15-3.34l.3.01-.13-.36c-.78-1.24-2-2.6-2.36-2.96-.41-.5-1.1-1.09-2-1.8"/></clipPath><radialGradient id="h" cx="0" cy="0" r="1" fx="0" fy="0" gradientTransform="matrix(283.535 0 0 -283.535 199.5 199.5)" gradientUnits="userSpaceOnUse" spreadMethod="pad"><stop offset="0" stop-color="#f5cf2c"/><stop offset="1" stop-color="#e6c126"/></radialGradient><clipPath id="e"><path d="M149.02 147.85c2.15.34 4.2.76 6.65 1.33 1.36.25 2.72.62 4.07.74.81.1 3.01.41 4.31.73a18.7 18.7 0 0 1 3.2-.23c1.2 0 2.36.06 3.4.06h.05a2.55 2.55 0 0 0-1.05-.87 3.86 3.86 0 0 0-1.67-.38 7.9 7.9 0 0 0-2.4.5c-.78.25-1.54.5-2.3.5a3 3 0 0 1-.96-.15c-1.63-.55-9.09-2.15-13.3-2.23m3.27 4.4c.7.6 1.3 1.18 1.71 1.52 1.2 1.02 2.58 1.96 3.86 2.96.7-.14 1.37-.25 2-.29-1.67-1.66-3.22-3.63-4.8-3.93-.7-.1-1.67-.19-2.77-.25m17.8 5.44c-.1.16-.18.3-.22.44-.07.22-.05.52.03.9.05-.44.1-.9.18-1.34"/></clipPath><radialGradient id="f" cx="0" cy="0" r="1" fx="0" fy="0" gradientTransform="matrix(283.535 0 0 -283.535 199.5 199.5)" gradientUnits="userSpaceOnUse" spreadMethod="pad"><stop offset="0" stop-color="#208921"/><stop offset="1" stop-color="#1e801c"/></radialGradient><clipPath id="c"><path d="M258.59 140.6c-1.28 0-2.72.24-3.97.48 2.42.23 4.86.95 7.3 2.55.45-2.37-1.21-3.03-3.33-3.03m-157.83.06c-.7.46-.39 2.22.15 3.52.57 1.38 8.12 6.36 8.12 6.36 1.55 1.78 3.1 5.06 5.7 5.06l.27-.01c2.53 0 4.6-2.99 7.58-2.99a20.82 20.82 0 0 1 2.1.02l.94-3.75c1-1.05 9.86-2.06 13.65-2.06.4 0 .74 0 1.01.03 3.59.32 6.23.61 8.74 1.01 4.21.08 11.67 1.68 13.3 2.23a3 3 0 0 0 .96.15c.76 0 1.52-.25 2.3-.5a7.9 7.9 0 0 1 2.4-.5c.54 0 1.1.1 1.67.38.47.22.81.52 1.05.86 1.24 0 3.05-.28 4.87-.51-.62-.46-1.21-.88-1.77-1.26-4.2-2.7-7.7-3.44-11.67-3.44-2.12 0-4.38.21-6.93.45-5.3.5-10.62.65-15.95.65-7.19 0-14.38-.29-21.5-.42-5.97 0-12.63-.92-17-5.28m46.99 11.47c-1.45 0-2.77.04-3.64.13-1.58.16-4.53 1.08-8.78 1.54.15.1.98.13 1.94.13h1.43c.97 0 1.8 0 1.92.12.55.46 1 .9 1.33 1.25a4.7 4.7 0 0 0-.5-1.35c-.25-.4 0-.64.34-.64a.8.8 0 0 1 .7.46c.24.5.26 1.27.06 1.89.3-.43.65-1.02.8-1.6.06-.26.2-.37.36-.37.32 0 .69.46.5.99-.1.28-.3.56-.55.81.42-.15.94-.28 1.51-.28.52 0 1.07.1 1.63.39a4.83 4.83 0 0 1 2.28 2.6h.1c.63 0 1.26-.03 1.9-.09 2.65-.28 4.87-.98 6.8-1.38-1.29-1-2.66-1.94-3.87-2.96-.4-.34-1-.92-1.71-1.51a83.43 83.43 0 0 0-4.55-.13m31.76.84c-.73.03-1.52.08-2.27.23-3.03.63-6.23 2.99-7.15 4.5l-.18 1.34c.54 2.3 3.78 7.36 7.48 12.48-.11-.38-.09-.89.08-1.23.03.5.34.97.8 1.23.39-.33.73-.73 1.1-1.15.69-.79 1.5-1.45 2.39-2 .46-.3 1.82-.93 3.57-1.36a7.92 7.92 0 0 1 4.65-1.65c.31 0 .62.02.93.06a35 35 0 0 1 2.9-1.71c-.4.1-.79.22-1.16.38l-.37.17c-3.47-3.53-8.37-7.8-12.77-11.29"/></clipPath><radialGradient id="d" cx="0" cy="0" r="1" fx="0" fy="0" gradientTransform="matrix(283.535 0 0 -283.535 199.5 199.5)" gradientUnits="userSpaceOnUse" spreadMethod="pad"><stop offset="0" stop-color="#f5cf2c"/><stop offset="1" stop-color="#e6c126"/></radialGradient><clipPath id="a"><path d="M159.86 156.44c-.63.04-1.3.15-2 .3 1.59 1.23 3.03 2.58 3.84 4.3 2.9 5.41 1.04 12.07 1.45 17.9.33 4.36.9 8.47.55 12.72.84-.25 1.67-.57 2.41-.93 1.63-1.4 4.63-3.59 7.12-5.46 0-.13.02-.25.03-.38l-.24-.36a.52.52 0 0 1-.13.04h-.01c-1.4-1.02-2.93-2.25-3.41-2.9-.94-1.26.09-1.97 1.13-2.68l.05-.04c-1.7-5.87-2.48-13.1-7.98-20.39a9.49 9.49 0 0 1-2.81-2.12M177 210.9c-3.79 2.76-8.89 5.38-12.7 7.85-.36 2.79-1.09 5.54-1.23 7.66a146.8 146.8 0 0 1-2.96 19.77c-.25 1.24-.65 2.48-1.03 3.74.32.08.63.2.95.34 3.33 1.88 5 5.83 8.74 7.5 1.43.59 2.9.94 4.4.94.86 0 1.74-.12 2.63-.38.26-.07 2.21-1.07 2.47-1.17 0 0-1.53 1.2-1.44 1.33 4.02 6.43 8.77 9.99 11.57 12.24 1.38-2.38 2.84-4.7 4-7.17 1.4-3.13 1.08-5.86.64-8.9-1-1.73-2.08-3.55-3.26-5.4-.56-.22-1.1-.47-1.7-.6-.22-.05-.44-.07-.62-.1l-.27.01c.17.35-.04 1.05-.4 1.36.13-.4.04-.88-.24-1.23-.42.14-.82.35-1.25.57a7.84 7.84 0 0 1-3.83.93c-.56 0-1.25-.04-2-.14a8.3 8.3 0 0 1-1.97.25c-5.08 0-6.7-5.54-7.15-7.73-.13.4-.26.86-.26 1.29 0 .29-.15.41-.32.41-.28 0-.63-.32-.57-.78.06-.51.42-1.1.87-1.49-.44.19-1 .47-1.4.85-.1.1-.21.15-.3.15-.37 0-.53-.68-.06-1.05.22-.17.5-.29.82-.36a3.6 3.6 0 0 1-2.37-1.61c-2.22-3.7 2.45-9.55 6.03-9.87l.37-.01a2.94 2.94 0 0 1 2.87 2.12c-.01-.07 0-.58 3.4-1.48l.3-.07A119.32 119.32 0 0 0 177 210.9m-31.44 26.93a27.27 27.27 0 0 0-1.5.5c-1.5 1.5-3 3.01-4.4 4.63-2.55 2.54-5.58 9.9-14.44 11.27-.67.14-1.3.26-1.91.37 2.12 3.95 5.2 7.89 4.28 12.72-.18 1.08-1.5 3.66-2.26 5-1.3-.5-3.9-1.46-4.72-1.51h-.15c-1.18 0-1.2 1.02-1.23 2.04-.01.57-.12 1.1-.7 1.33-.3.1-.47.07-.71.3-.15.14-.15.37-.12.55.04.3.28.38.1.38h-.18c-.32 0-.56.42-.56.74 0 .47.54.64-.27 1.2-.2.14-.45.22-.64.37-.22.16-.19.45-.06.66.37.64.82 1.2 1.13 1.87.08.21.16.42.21.6l.05.25a.5.5 0 0 0-.14-.01c-.37 0-.89.31-1.1.68.19-.11.4-.17.62-.17.21 0 .42.05.62.15-.05.43-.18.87-.3 1.32a9.25 9.25 0 0 0-.32 2.62c0 .47.2 1.73.7 3.17-.28 6.76 6.55 7.37 9.01 7.37h.01c-.35.2-.78.42-1.2.5-.63.14-.28.84.3.84.08 0 .16-.01.24-.04.48-.16 1-.62 1.27-1.14a4.6 4.6 0 0 1-.55 1.52c-.23.36 0 .59.31.59.22 0 .49-.13.63-.41.12-.25.18-.56.2-.87a3.55 3.55 0 0 0 3.33 2.2c1.42 0 2.86-.73 4.06-1.8.11-.1-1.27-4.8-1.16-4.9.57 1.38 2.58 7.13 2.76 7.4.22.35 7.85 4.2 13.51 7.07.67-.82 1.24-1.73 1.98-2.54.45-.6 1.62-1.75 2.55-2.29v-.13a208.6 208.6 0 0 1-8.84-6.4c-.24 0 .6 3.1.6 3.1-.72-.68-5.13-14.13-5.57-16.38-.59-2.93-.6-5.84-.96-8.86.85-3.3 3.37-6.6 5.23-9.28a38.48 38.48 0 0 0 3.03-4.5 8.77 8.77 0 0 1-.57-1.91c-.18-1.66.55-2.77.92-4.07.37-2.58-1.1-5.72-1.66-7.94a60.44 60.44 0 0 1-1.43-8.16m54.77 29.4c-3.6 7.45-11.4 14.93-14.81 21.76 0 0-.57 3.88-4.14 8.21-.68.83-2.16 2.07-3.01 2.07a.58.58 0 0 1-.38-.12l-.16-.02c-.5.32-.98.52-1.4.52-.28 0-.54-.1-.76-.31l-.31-.09c-.58.42-1.09.7-1.44.7a.46.46 0 0 1-.25-.07c-.35-.22-.21-.74.19-1.4l-.03-.39.02-.19c-.51-.18-.96-.2-1.62-.2h-.4c-2.9.21-3.48 2.27-2.86 4.35.16.53.31 1.05.42 1.56.06.72-.04 2.1-.17 2.13l-.23-2.03c-1.65.5-3.37 1.44-5.09 1.87l.1.34c.73 2.72-1.58 4.37-4 4.42-1.18.03-2.28.1-3.33.29 1.11 1.03 2.73 3.06 3.78 3.06 1.25 0 2.5 0 3.53-.2 1.6-.2 5.24-.3 6.58-2.89.3-.23.62-.5.96-.8 0 0 9.1-10.04 14.3-14.62 5.2-4.36 10.19-8.32 14.35-13.93 1.66-2.29 3.33-5.2 2.7-8.32-.28-2-1.36-3.9-2.54-5.7"/></clipPath><radialGradient id="b" cx="0" cy="0" r="1" fx="0" fy="0" gradientTransform="matrix(283.535 0 0 -283.535 199.5 199.5)" gradientUnits="userSpaceOnUse" spreadMethod="pad"><stop offset="0" stop-color="#21a7ba"/><stop offset="1" stop-color="#1f9c9f"/></radialGradient></defs><path fill="#d13c9b" d="M53.64 50.8c-4.94 1.65-2.78 6.38-6.39 11.16-1 .42-1.83 1.97-2.68 2.14-.87.13-3 .17-3.87.08-.56-.05-1.6-.38-3.1-.54.07-.05.5-.05.94-.04.44 0 .87 0 .93-.05.2-.16.35-.32.47-.44-.04.16-.1.33-.18.48-.15.24.24.32.37.06.08-.18.09-.45.02-.67.1.15.23.36.28.57.07.28.4.06.3-.22a.83.83 0 0 0-.19-.29c.28.1.7.17 1.1-.03 1.5-.75 1.18-3.63.08-4.47-.8-.61-1.47 0-1.5.02.02-.02.12-.2-.8-1.19a4.62 4.62 0 0 0-2.8-1.18c.13-.95.05-1.88-.1-2.87-.34-2.43-.56-6.04 2.35-7.08.71-.27 1.42-.23 2.15-.2.28.02.57.03.85.03.4.62 1.66 1.08 2.51 1.13.87.06 1.89 0 2.8-.53 1 .9 2.04 1.74 3.2 2.44.66.43 1.62.78 2.35 1.08.35.13.83.26.96.61h-.05m3.72-2.6c-1.43-1.5-3-3.07-4.63-4.37-1.35-1.1-3.4-2.13-4.9-3.1-.13-.99-.39-1.96-.44-2.7a52.5 52.5 0 0 0-1.04-6.98c-.2-.98-.65-1.95-.72-3-.06-1.1.33-2.28.72-3.32.78-2.15.84-4.17.71-6.45-.06-1.18-.19-2.35-.26-3.52-.1-1.84.27-2.88.57-3.92.14-.3.3-.62.35-.86.26-.96-.56-1.55-1.41-1.56a5.04 5.04 0 0 1-2.66-.65c-.75-.49-1.48-1-2.4-.78-.85.2-2.64.93-1.7 1.6 1.12-.54 2.11-.16 3.01.6.4.36.65.83 1.02 1.23.16.21.57.62.9.81 0 2.08-.22 3.6-.54 5.61-.2.98-1.11 7.76-1.5 8.67-.13.46-.4.92-.46 1.37-.06.59.2.98.33 1.43.13.92-.4 2.03-.59 2.8-.26.99-.4 1.96-.52 3-.13.98-.2 2.03-.2 3 0 .57-.08 1.24-.06 1.86a7.72 7.72 0 0 1-3.02 1.92 56.6 56.6 0 0 1-3.52 1.22c-1.13.4-1.91.91-2.48 2-.3.6-.52 1.26-.87 1.82-.3.48-.7.87-1.04 1.3-.46.61-.6 1.33-.59 2.04l-.02.01c-.78 1.22-1.3 2.52-.26 3.74.86 1.01 2.74 1.15 3.24 2.47.35.81.59 2.82.6 2.9-.03 0-.1-.3-.2-.63-.07-.32-.16-.64-.2-.62-.5.25-1.25.6-1.44.78-.39.36-.1.65.2.95.16.15.28.33.18.55-.04.12-.1.16-.1.28 0 .09.06.15.12.19.11.08.22 0 .1.11-.1.1-.05.28.04.37.14.13.33.02.27.4-.01.1-.06.19-.07.28-.01.11.08.18.18.2.27.06.56.1.83.19.08.03.16.06.22.1l.09.05c-.13.08-.2.35-.15.53a.5.5 0 0 1 .23-.3 187.6 187.6 0 0 1 .9 3.56c.4.41 4.17.8 5.17.71 2.36-.2 3.56-.39 5.43-.82.48-.09.96-.22 1.44-.26.28-.04 1.06-.15 1.52-.26.75.14 1.63.06 2.32.06.91 0 2.74.44 3.59.24.52-.2.93-.85.47-1.04-.28-.12-1.05-.02-1.73-.16-1.19-.24-2.44-1.24-2.6-1.74-.33-1.04 4.77-7.73 6.4-9.42 1.37-1.5 2.87-2.67 1.17-4.5"/><g clip-path="url(#a)" transform="matrix(.35278 0 0 -.35278 -10.14 117.9)"><path fill="url(#b)" d="M159.86 156.44c-.63.04-1.3.15-2 .3 1.59 1.23 3.03 2.58 3.84 4.3 2.9 5.41 1.04 12.07 1.45 17.9.33 4.36.9 8.47.55 12.72.84-.25 1.67-.57 2.41-.93 1.63-1.4 4.63-3.59 7.12-5.46 0-.13.02-.25.03-.38l-.24-.36a.52.52 0 0 1-.13.04h-.01c-1.4-1.02-2.93-2.25-3.41-2.9-.94-1.26.09-1.97 1.13-2.68l.05-.04c-1.7-5.87-2.48-13.1-7.98-20.39a9.49 9.49 0 0 1-2.81-2.12M177 210.9c-3.79 2.76-8.89 5.38-12.7 7.85-.36 2.79-1.09 5.54-1.23 7.66a146.8 146.8 0 0 1-2.96 19.77c-.25 1.24-.65 2.48-1.03 3.74.32.08.63.2.95.34 3.33 1.88 5 5.83 8.74 7.5 1.43.59 2.9.94 4.4.94.86 0 1.74-.12 2.63-.38.26-.07 2.21-1.07 2.47-1.17 0 0-1.53 1.2-1.44 1.33 4.02 6.43 8.77 9.99 11.57 12.24 1.38-2.38 2.84-4.7 4-7.17 1.4-3.13 1.08-5.86.64-8.9-1-1.73-2.08-3.55-3.26-5.4-.56-.22-1.1-.47-1.7-.6-.22-.05-.44-.07-.62-.1l-.27.01c.17.35-.04 1.05-.4 1.36.13-.4.04-.88-.24-1.23-.42.14-.82.35-1.25.57a7.84 7.84 0 0 1-3.83.93c-.56 0-1.25-.04-2-.14a8.3 8.3 0 0 1-1.97.25c-5.08 0-6.7-5.54-7.15-7.73-.13.4-.26.86-.26 1.29 0 .29-.15.41-.32.41-.28 0-.63-.32-.57-.78.06-.51.42-1.1.87-1.49-.44.19-1 .47-1.4.85-.1.1-.21.15-.3.15-.37 0-.53-.68-.06-1.05.22-.17.5-.29.82-.36a3.6 3.6 0 0 1-2.37-1.61c-2.22-3.7 2.45-9.55 6.03-9.87l.37-.01a2.94 2.94 0 0 1 2.87 2.12c-.01-.07 0-.58 3.4-1.48l.3-.07A119.32 119.32 0 0 0 177 210.9m-31.44 26.93a27.27 27.27 0 0 0-1.5.5c-1.5 1.5-3 3.01-4.4 4.63-2.55 2.54-5.58 9.9-14.44 11.27-.67.14-1.3.26-1.91.37 2.12 3.95 5.2 7.89 4.28 12.72-.18 1.08-1.5 3.66-2.26 5-1.3-.5-3.9-1.46-4.72-1.51h-.15c-1.18 0-1.2 1.02-1.23 2.04-.01.57-.12 1.1-.7 1.33-.3.1-.47.07-.71.3-.15.14-.15.37-.12.55.04.3.28.38.1.38h-.18c-.32 0-.56.42-.56.74 0 .47.54.64-.27 1.2-.2.14-.45.22-.64.37-.22.16-.19.45-.06.66.37.64.82 1.2 1.13 1.87.08.21.16.42.21.6l.05.25a.5.5 0 0 0-.14-.01c-.37 0-.89.31-1.1.68.19-.11.4-.17.62-.17.21 0 .42.05.62.15-.05.43-.18.87-.3 1.32a9.25 9.25 0 0 0-.32 2.62c0 .47.2 1.73.7 3.17-.28 6.76 6.55 7.37 9.01 7.37h.01c-.35.2-.78.42-1.2.5-.63.14-.28.84.3.84.08 0 .16-.01.24-.04.48-.16 1-.62 1.27-1.14a4.6 4.6 0 0 1-.55 1.52c-.23.36 0 .59.31.59.22 0 .49-.13.63-.41.12-.25.18-.56.2-.87a3.55 3.55 0 0 0 3.33 2.2c1.42 0 2.86-.73 4.06-1.8.11-.1-1.27-4.8-1.16-4.9.57 1.38 2.58 7.13 2.76 7.4.22.35 7.85 4.2 13.51 7.07.67-.82 1.24-1.73 1.98-2.54.45-.6 1.62-1.75 2.55-2.29v-.13a208.6 208.6 0 0 1-8.84-6.4c-.24 0 .6 3.1.6 3.1-.72-.68-5.13-14.13-5.57-16.38-.59-2.93-.6-5.84-.96-8.86.85-3.3 3.37-6.6 5.23-9.28a38.48 38.48 0 0 0 3.03-4.5 8.77 8.77 0 0 1-.57-1.91c-.18-1.66.55-2.77.92-4.07.37-2.58-1.1-5.72-1.66-7.94a60.44 60.44 0 0 1-1.43-8.16m54.77 29.4c-3.6 7.45-11.4 14.93-14.81 21.76 0 0-.57 3.88-4.14 8.21-.68.83-2.16 2.07-3.01 2.07a.58.58 0 0 1-.38-.12l-.16-.02c-.5.32-.98.52-1.4.52-.28 0-.54-.1-.76-.31l-.31-.09c-.58.42-1.09.7-1.44.7a.46.46 0 0 1-.25-.07c-.35-.22-.21-.74.19-1.4l-.03-.39.02-.19c-.51-.18-.96-.2-1.62-.2h-.4c-2.9.21-3.48 2.27-2.86 4.35.16.53.31 1.05.42 1.56.06.72-.04 2.1-.17 2.13l-.23-2.03c-1.65.5-3.37 1.44-5.09 1.87l.1.34c.73 2.72-1.58 4.37-4 4.42-1.18.03-2.28.1-3.33.29 1.11 1.03 2.73 3.06 3.78 3.06 1.25 0 2.5 0 3.53-.2 1.6-.2 5.24-.3 6.58-2.89.3-.23.62-.5.96-.8 0 0 9.1-10.04 14.3-14.62 5.2-4.36 10.19-8.32 14.35-13.93 1.66-2.29 3.33-5.2 2.7-8.32-.28-2-1.36-3.9-2.54-5.7"/></g><path fill="#1b2872" d="M46.4 62.71h-.14c.31-.32.64-.6 1-.75 1.93-2.57 2.2-5.12 2.8-7.2.2.14.34.3.29.54-.03.13-.08.18-.06.32.02.08.1.13.17.16a.25.25 0 0 0 .13.02h.01c.03 0 .03.01-.02.09-.08.1-.01.25.08.34-.23.96-.5 1.91-.7 2.89-.75 1-1.47 1.98-2.02 2.75-.46.64-.96.84-1.53.84m4.58-9.87a2 2 0 0 0-.09-.04l.08-.13.01.17m.39-5.76c-.2-.27-.4-.54-.63-.79l.02-.04a12.65 12.65 0 0 0-2.88-4.13c-.36-.36-.69-.75-1-1.15.07-1.4.18-2.76.09-4.14 0-.21-.01-1.38-.04-1.39l-.18 1.29c-1.01-.52-1.77-1.33-2.79-1.84-.9-.45-1.85-.62-2.76-.9.13-1 .26-1.93.51-2.87.2-.79.72-1.9.59-2.8-.13-.46-.4-.85-.33-1.44.03-.22.11-.45.2-.67.38.64.74 1.3 1.13 1.93.53.82 1.34 1.64 2.27 1.64.14 0 .27-.02.4-.05.14.44.28.88.37 1.32.52 2.28.84 4.7 1.04 6.98.05.74.3 1.71.44 2.7 1.34.87 3.14 1.8 4.48 2.77a43.1 43.1 0 0 1-.93 3.58m-6.9-35.8v-.05c-.33-.19-.74-.6-.9-.8-.26-.3-.46-.62-.7-.9.97-.5 1.78-.9 2.05-1.05l.2-.17c.38.07.76.1 1.18.1.85.02 1.67.6 1.4 1.56l-.02.13a2.67 2.67 0 0 0-.48-.08c-.93 0-1.78.63-2.53 1.13l-.2.13"/><g clip-path="url(#c)" transform="matrix(.35278 0 0 -.35278 -10.14 117.9)"><path fill="url(#d)" d="M258.59 140.6c-1.28 0-2.72.24-3.97.48 2.42.23 4.86.95 7.3 2.55.45-2.37-1.21-3.03-3.33-3.03m-157.83.06c-.7.46-.39 2.22.15 3.52.57 1.38 8.12 6.36 8.12 6.36 1.55 1.78 3.1 5.06 5.7 5.06l.27-.01c2.53 0 4.6-2.99 7.58-2.99a20.82 20.82 0 0 1 2.1.02l.94-3.75c1-1.05 9.86-2.06 13.65-2.06.4 0 .74 0 1.01.03 3.59.32 6.23.61 8.74 1.01 4.21.08 11.67 1.68 13.3 2.23a3 3 0 0 0 .96.15c.76 0 1.52-.25 2.3-.5a7.9 7.9 0 0 1 2.4-.5c.54 0 1.1.1 1.67.38.47.22.81.52 1.05.86 1.24 0 3.05-.28 4.87-.51-.62-.46-1.21-.88-1.77-1.26-4.2-2.7-7.7-3.44-11.67-3.44-2.12 0-4.38.21-6.93.45-5.3.5-10.62.65-15.95.65-7.19 0-14.38-.29-21.5-.42-5.97 0-12.63-.92-17-5.28m46.99 11.47c-1.45 0-2.77.04-3.64.13-1.58.16-4.53 1.08-8.78 1.54.15.1.98.13 1.94.13h1.43c.97 0 1.8 0 1.92.12.55.46 1 .9 1.33 1.25a4.7 4.7 0 0 0-.5-1.35c-.25-.4 0-.64.34-.64a.8.8 0 0 1 .7.46c.24.5.26 1.27.06 1.89.3-.43.65-1.02.8-1.6.06-.26.2-.37.36-.37.32 0 .69.46.5.99-.1.28-.3.56-.55.81.42-.15.94-.28 1.51-.28.52 0 1.07.1 1.63.39a4.83 4.83 0 0 1 2.28 2.6h.1c.63 0 1.26-.03 1.9-.09 2.65-.28 4.87-.98 6.8-1.38-1.29-1-2.66-1.94-3.87-2.96-.4-.34-1-.92-1.71-1.51a83.43 83.43 0 0 0-4.55-.13m31.76.84c-.73.03-1.52.08-2.27.23-3.03.63-6.23 2.99-7.15 4.5l-.18 1.34c.54 2.3 3.78 7.36 7.48 12.48-.11-.38-.09-.89.08-1.23.03.5.34.97.8 1.23.39-.33.73-.73 1.1-1.15.69-.79 1.5-1.45 2.39-2 .46-.3 1.82-.93 3.57-1.36a7.92 7.92 0 0 1 4.65-1.65c.31 0 .62.02.93.06a35 35 0 0 1 2.9-1.71c-.4.1-.79.22-1.16.38l-.37.17c-3.47-3.53-8.37-7.8-12.77-11.29"/></g><path fill="#cb311b" d="M39 66.1c-1.34 0-4.47-.35-4.82-.72l-.33-1.32c1.38-.08 2.72-.53 4.07-.98a14.6 14.6 0 0 1 4.53-1c-.16.4-.42.74-.8.93a1.43 1.43 0 0 1-1.11.03c.09.1.16.2.2.3.06.18-.07.34-.18.34-.06 0-.1-.04-.13-.13a1.8 1.8 0 0 0-.28-.57c.07.22.06.5-.02.67a.28.28 0 0 1-.25.16c-.12 0-.2-.08-.12-.22.09-.15.14-.32.18-.48-.12.12-.28.28-.47.44a2.4 2.4 0 0 1-.68.05h-.5c-.34 0-.63 0-.69.04 1.5.16 2.54.49 3.1.54a29.4 29.4 0 0 0 2.89 0c-.25.22-.54.43-.82.57-.3.15-1.18-.07-1.35.48l-.02.16c-.04.26.34.35.92.35h.11a43.4 43.4 0 0 1-3.44.37M51.8 65a16.9 16.9 0 0 0-1.7-.19c.4-.6-.04-1.64-.16-2.19a7.05 7.05 0 0 1-.06-.35 4.54 4.54 0 0 0 2.52 1.58c.26.05.54.07.8.08-.49.39-.96.75-1.4 1.07m-1.99-3.2c-.09-.93 0-1.82.17-2.68.52-.69 1.05-1.38 1.57-2h.14c.16 0 .32 0 .48.02a4.31 4.31 0 0 1 .35.1.32.32 0 0 0-.08.15c-1.3 1.8-2.45 3.6-2.64 4.4"/><g clip-path="url(#e)" transform="matrix(.35278 0 0 -.35278 -10.14 117.9)"><path fill="url(#f)" d="M149.02 147.85c2.15.34 4.2.76 6.65 1.33 1.36.25 2.72.62 4.07.74.81.1 3.01.41 4.31.73a18.7 18.7 0 0 1 3.2-.23c1.2 0 2.36.06 3.4.06h.05a2.55 2.55 0 0 0-1.05-.87 3.86 3.86 0 0 0-1.67-.38 7.9 7.9 0 0 0-2.4.5c-.78.25-1.54.5-2.3.5a3 3 0 0 1-.96-.15c-1.63-.55-9.09-2.15-13.3-2.23m3.27 4.4c.7.6 1.3 1.18 1.71 1.52 1.2 1.02 2.58 1.96 3.86 2.96.7-.14 1.37-.25 2-.29-1.67-1.66-3.22-3.63-4.8-3.93-.7-.1-1.67-.19-2.77-.25m17.8 5.44c-.1.16-.18.3-.22.44-.07.22-.05.52.03.9.05-.44.1-.9.18-1.34"/></g><path fill="#1a2114" d="M42.32 65.74c-.58 0-.96-.1-.92-.35l.02-.16c.17-.55 1.05-.33 1.35-.48.28-.14.57-.35.82-.57.39-.02.73-.05.98-.08.55-.11 1.1-.8 1.69-1.4l.15.01c.57 0 1.07-.2 1.53-.84.55-.77 1.27-1.75 2.03-2.75a9.26 9.26 0 0 0-.17 2.67.63.63 0 0 0 0 .32c0 .05.03.1.07.16l.06.36c.12.54.56 1.58.15 2.18h-.02l-1.2.02c-.37 0-.76-.01-1.12-.08-.46.11-1.24.22-1.52.26-.48.04-.96.17-1.44.26a32.66 32.66 0 0 1-2.46.47"/><g clip-path="url(#g)" transform="matrix(.35278 0 0 -.35278 -10.14 117.9)"><path fill="url(#h)" d="M238.97 164.48c-1.02.13-2.03.23-3.03.3-.2.65-.39 1.33-.58 2.07-.92 3.44-1.84 6.66-1.6 10.1.45 2.99 1.37 8.73 1.37 11.49l-.63-.52c-5.17-5.17-16.89-16.08-27.54-21.43a81.89 81.89 0 0 1-3.45 3.3 26.6 26.6 0 0 1-2.3 1.85c.7.03 1.5.23 2.22.79 4 3.03 1.47 11.38-2.27 13.28-.65.32-1.23.45-1.75.45a3.54 3.54 0 0 1-2.67-1.34c.04.07.25.63-3.05 3.07a9 9 0 0 1-1.96 1.09c1.83 2.37 2.62 4.75.34 7.74.36 1.2.58 2.58.68 4.24.43 7.23-4.38 21.3-1.53 30.55-1.3.48-2.38.82-3.12 1-1.14-.65-3.86-2.02-6.7-2.02a7.9 7.9 0 0 0-1.67.18 64.7 64.7 0 0 1-.01 5.4 84.02 84.02 0 0 1 10.06 13.18l.39.14c.07.03.16.05.24.05.17 0 .33-.07.4-.24.11-.23.15-.48.25-.72.2-.45.36-.55.54-.55l.22.03c.07.02.16.03.24.03h.13c.15-.04.3-.13.42-.24-.09 1.33-.1 2.62.03 3.86.1 1.06.26 2.06.4 3.04 2.45 4.24 4.36 7.93 5.68 10.17.51.78 1.07 1.58 1.61 2.4.52-1.07.95-2.14 1.27-3.2 1.84-6.44.68-14.48.68-21.14 0-2.46.09-4.67.69-6.78h.06a26.89 26.89 0 0 0 3.87-3.8l-.42-.26c-4.8-3.07-16.45-9.96-12.23-17.22 1.6-2.75 3.44-3.75 6.53-3.75 2.47 0 5.74.64 10.32 1.51a50.3 50.3 0 0 1 7.12 1.97 5.12 5.12 0 0 0-3.92-4.55l-.07-.2c0-4.13-.69-8.27-2.99-11.95-1.94-3.24-5.45-6.62-5.72-11.36 11.6 8.02 27.75 12.52 32.83 12.52a13.43 13.43 0 0 0 1.2-.03c.17-1.23.39-2.45.58-3.62-.1-.23-.19-.46-.27-.7-1.26-3.4-1.44-7.72-1.26-11.3.08-.6.18-1.2.29-1.8-.47-2.96-.8-6.32-.61-9.57.16-2.77.52-4.97.69-7.5M188.4 270.71a43.64 43.64 0 0 0-2.88 5.7c-.86 2.2-2.13 7.35-3.29 8.34a24.5 24.5 0 0 1-4.52 2.8c-1.82.9-2.03 2.9-3.85 3.27.3.54.73.73 1.2.73.97 0 2.14-.81 2.76-1.1 0 0-3.62 3.81-3.97 7.44.24.09.5.21.8.4l.18-.02c3.55-2.1 6.34-9.97 7.66-12.25 1.25-2.28 2.08-5.2 3.95-6.86 1.2-1.39 4.08-3.34 6.15-3.34l.3.01-.13-.36c-.78-1.24-2-2.6-2.36-2.96-.41-.5-1.1-1.09-2-1.8"/></g><path fill="#cb311b" d="M57.5 51.23a4.9 4.9 0 0 0-1.65-.32 4.88 4.88 0 0 0 1.77-2.41c.8 1.05.53 1.9-.12 2.73"/><g clip-path="url(#i)" transform="matrix(.35278 0 0 -.35278 -10.14 117.9)"><path fill="url(#j)" d="M173.16 230.1l-.37.01c-3.58.32-8.25 6.18-6.03 9.87a3.6 3.6 0 0 0 2.37 1.61c-.31.07-.6.2-.82.36-.47.37-.3 1.05.05 1.05.1 0 .2-.04.31-.15.4-.38.96-.66 1.4-.84-.45.37-.82.97-.87 1.48-.06.46.3.78.57.78.17 0 .32-.12.32-.41 0-.43.13-.9.26-1.29.45 2.19 2.07 7.73 7.15 7.73.6 0 1.26-.08 1.98-.25a15 15 0 0 0 1.99.13 7.84 7.84 0 0 0 3.83-.92c.43-.22.83-.43 1.25-.57.28.35.37.83.23 1.23.36-.31.58-1 .41-1.36h.27c.18.02.4.04.63.08.59.15 1.13.4 1.7.61a84.02 84.02 0 0 0-10.07-13.18c.08-1.73.08-3.54 0-5.4l-.29.07c-3.4.9-3.41 1.41-3.4 1.48a2.94 2.94 0 0 0-2.87-2.12m19.88 24.55c.44 3.04.76 5.77-.63 8.9-1.17 2.47-2.63 4.79-4.01 7.17.9.71 1.59 1.3 2 1.8.36.36 1.58 1.72 2.36 2.96l.13.36-.3-.01c-2.07 0-4.96 1.95-6.15 3.34-1.87 1.66-2.7 4.57-3.95 6.86-1.32 2.28-4.11 10.15-7.66 12.25l-.19.01c-.3-.18-.55-.3-.8-.39l-.01.2.03.38c-.4.66-.54 1.18-.2 1.4.08.05.16.07.26.07.35 0 .86-.28 1.44-.7l.31.09c.22.22.48.31.76.31.42 0 .9-.2 1.4-.52l.16.03c.1.08.23.12.38.12.85 0 2.33-1.24 3.01-2.08 3.57-4.33 4.14-8.2 4.14-8.2 3.41-6.84 11.21-14.32 14.81-21.78-.54-.82-1.1-1.62-1.62-2.4-1.3-2.23-3.22-5.93-5.67-10.17"/></g><path fill="#cb311b" d="M56.04 52.24c-.14-.1-.5-.4-.94-.78l.13-.08c.36.38.85.86.81.86"/><g clip-path="url(#k)" transform="matrix(.35278 0 0 -.35278 -10.14 117.9)"><path fill="url(#l)" d="M77.44 140.6c-4.28 0-10.9 2.07-13.52 2.26l-.55.02c-.87 0-1.7-.13-2.5-.26s-1.55-.26-2.27-.26c-1.29 0-2.45.43-3.45 2.04-1.17 1.81.15 4.7 1.86 6.61a19.76 19.76 0 0 1 2.68 3.51c2.23 4.54 3.5 8.13 5.5 12.67 2.56 5.78 3.3 10.7 4.84 15.66l.22-.1c3.4-2.1 7.01-4 10.4-6.12a83.2 83.2 0 0 1-3.55-8.13 27.35 27.35 0 0 1-1.02-3.33c-.12-.61-.26-1.2-.18-2.02a3.4 3.4 0 0 1 1.17-2.04 11.75 11.75 0 0 1 3.23-1.93c1.1-.47 2.21-.87 3.33-1.24 1.5-.5 3.03-.96 4.53-1.45.12-.6.22-1.19.3-1.78a6 6 0 0 0-1.55-.16h-.96c-.34 0-.67 0-1-.05a7.42 7.42 0 0 1-1.96-.84c-2.15.27-4.32.7-6.54 1.09-1.16.18-2.3.44-3.64.44h-.3l-.43-.02c-.81 0-1.8.06-2.7.08-.2 0 .94 4.64.75 4.64-.59-1.68-2.21-7.58-2.04-8.24.72-2.68 7.7-4.57 12.3-6.34-1.5-.75-2.95-1.66-4.76-1.9-.7 0-2.63 0-2.8-1.08 0-1.07 1.92-1.43 2.45-1.43.93-.15 1.93-.24 2.92-.28l-.76-.02m8.1 42.94a687 687 0 0 1-5.45 3.94c.2 0 1.26-.58 2.31-1.15a15 15 0 0 1 2.33-1.14c1.86.83 3.68 1.63 5.46 2.4-1.38-1.36-2.98-2.5-4.65-4.05m87.88 1.59l-.19.14c-.2 3.03-.58 6.01-.38 8.97 1.69-.89 3.72-1.64 5.37-2.32.98-.37 2.33-.74 2.7-1.72l-.15.02c-3.54-1.19-5.79-2.93-7.35-5.1m-9.72 6.54a16 16 0 0 1-4.31.75c-1.78 0-3.62-.1-5.47-.1-2.76 0-5.53.23-8.06 1.43-3.55 2.03-4.78 5.5-4.76 9.2l-.33.33-.2.3c.77.14 1.54.18 2.32.18.7 0 1.4-.04 2.12-.07a27.08 27.08 0 0 1 2.43-.07c1.1-1.75 4.68-3.07 7.1-3.22a22 22 0 0 1 1.43-.05c2.02 0 4.22.3 6.24 1.42.28-2.68.6-5.07.94-6.4.28-1.25.45-2.48.55-3.7m-68.89 10.22c2.16.9 5.77 2.35 5.86 2.5 2 3.2 7.13 8.9 8.6 11.26 6.44 10.43 4.83 15.78.71 20.78l-1.91 1.3a14.8 14.8 0 0 1-7.08 2.47c1.92 3.2 4 6.19 6.17 8.75 4.15 4.6 7.36 6.14 11.49 6.14 1.42 0 2.95-.18 4.66-.48-.25-.48-.5-.95-.71-1.43-2.34-5.1.86-8.4 4.72-8.4.4 0 .82.04 1.24.11l.1.05c1.04-1.87 4.75-2.57 6.83-3.2 3-1 5.6-2.37 8.57-3.4l1.39-1.39c-.33-2.6-.49-5.36-.49-7.95 0-1.59-.24-3.5-.19-5.26-2.13-2.43-5.61-4.4-8.55-5.45l-1.38-.51c-3.4 7.53-8.79 12.53-10.98 13.68l-.28.68c-3.26-5.28-13.32-20.1-20.5-28.72a27.72 27.72 0 0 1-8.27-1.53"/></g><path fill="#9a2414" d="M51.5 57.11h-.24c-.1 0-.21-.06-.22-.17l.02-.32c-.01-.4-.2-.25-.36-.36a.32.32 0 0 1-.04-.03 11.58 11.58 0 0 0 .33-3.39l.41.2c.26.13.51.25.54.25-.23-.2-.55-.44-.9-.7a4.96 4.96 0 0 1 2.6-1.8l.05.01c-.13-.35-.6-.48-.95-.6-.59-.25-1.3-.51-1.9-.83.04-.55.13-1.1.32-1.64l.22-.65c.45.62.85 1.3 1.28 2l.3.45c.43.42 1.4 1.29 2.14 1.93-.9.59-1.58.74-2.22 1.9-.55 1-.62 1.91-.46 2.7-.28.32-.58.67-.88 1.05h-.04m-6.61-9.89c-.18 0-.34 0-.5-.02-.86-.05-2.12-.51-2.52-1.13h-.1l-.75-.03-.75-.02c-.27 0-.54.01-.82.06a7.43 7.43 0 0 1-.58-1.13c.34-.13.74-.19 1.34-.19l.46.01.42-.37c.34-.13 0-.8-1.34-.8a4.62 4.62 0 0 0-1.33.18c-.26-.74-.5-1.5-.77-2.2l-.22-.5.49-.19a7.72 7.72 0 0 0 3.02-1.92c-.02-.62.06-1.3.06-1.86 0-.91.06-1.88.17-2.8.4.4.8.81 1.17 1.24.94 1.02 2.03 2.03 2.9 3.2.55.72 1.07 1.49 1.65 2.22a34.1 34.1 0 0 0-.06 1.77c0 .93.11 2.57.26 3.98-.72.4-1.49.5-2.2.5"/><g clip-path="url(#m)" transform="matrix(.35278 0 0 -.35278 -10.14 117.9)"><path fill="url(#n)" d="M170.65 178.95l-.05.04c-1.05.71-2.07 1.42-1.13 2.68.48.65 2.02 1.88 3.41 2.9h.01c.02 0 .07-.01.13-.04a21.15 21.15 0 0 1-2.37-5.58m2.58 6.32c-2.49 1.87-5.49 4.05-7.12 5.46-.74.36-1.57.68-2.4.93-.1 1.22-.28 2.45-.56 3.7a54.89 54.89 0 0 0-.94 6.4l.24.14v.01a58.23 58.23 0 0 1 10.4-7.67c-.2-2.96.18-5.94.38-8.97m-29.17 53.06c-2.96 1.03-5.57 2.4-8.57 3.4-2.08.63-5.8 1.33-6.83 3.2l-.1-.05a6.94 6.94 0 0 0-1.24-.1c-3.86 0-7.06 3.29-4.72 8.4.21.47.46.94.7 1.42a63.7 63.7 0 0 0 1.92-.37c8.86-1.38 11.9-8.73 14.44-11.27 1.4-1.62 2.9-3.13 4.4-4.63"/></g><path fill="#14180f" d="M50.66 56.23c-.1-.09-.16-.25-.08-.34.05-.08.05-.09.02-.09h-.04c-.03 0-.06 0-.1-.02-.07-.03-.15-.08-.17-.16-.02-.14.03-.19.06-.32.05-.24-.1-.4-.28-.53.2-.72.46-1.39.83-1.97.03 0 .06.02.1.04l.02.69c0 .93-.16 1.82-.36 2.7m.18-6.86a20.54 20.54 0 0 1-3.67-2.7 5.2 5.2 0 0 1-.08.05 45.2 45.2 0 0 1-.26-3.98c0-.6.03-1.19.06-1.77.31.4.64.8 1 1.15 1.1 1.1 2.33 2.64 2.88 4.13l-.02.04c.22.25.43.52.63.8l-.22.64c-.19.55-.28 1.1-.32 1.64"/><g clip-path="url(#o)" transform="matrix(.35278 0 0 -.35278 -10.14 117.9)"><path fill="url(#p)" d="M201.22 160c-.87.48-1.74.95-2.6 1.37-1.64.75-3.26 1.5-4.83 2.34.83-.21 1.7-.3 2.6-.3 3.16 0 6.8 1.19 10.57 3.08 1.17-1.19 2.32-2.41 3.46-3.65-3.12-.53-6.6-1.37-9.2-2.84"/></g><path fill="#9a2414" d="M55.23 51.38a2 2 0 0 1-.39-.44 7.2 7.2 0 0 1 1.01-.03 14.41 14.41 0 0 1-.62.47"/><g clip-path="url(#q)" transform="matrix(.35278 0 0 -.35278 -10.14 117.9)"><path fill="url(#r)" d="M196.39 163.4c-.9 0-1.77.1-2.6.3a42.5 42.5 0 0 0-2.9 1.72c-.3-.04-.6-.06-.92-.06-1.44 0-3 .46-4.65 1.65a14.2 14.2 0 0 0-3.57 1.36c-.89.55-1.7 1.22-2.39 2-.37.42-.71.82-1.1 1.15a1.53 1.53 0 0 1-.8-1.23c-.17.34-.2.85-.08 1.23 3.95 5.48 8.42 11.02 10.63 13.32 1.32 1.45 2.69 2.8 3.72 4.14a9 9 0 0 0 1.97-1.1c3.3-2.43 3.08-3 3.04-3.06a3.54 3.54 0 0 0 2.67 1.34c.52 0 1.1-.13 1.75-.45 3.74-1.9 6.26-10.25 2.27-13.28a3.87 3.87 0 0 0-2.22-.79 28.5 28.5 0 0 0 2.3-1.84 81.89 81.89 0 0 0 3.45-3.3c-3.77-1.9-7.4-3.1-10.57-3.1"/></g><path fill="#961e03" d="M52.44 57.39a.32.32 0 0 1 .08-.15 4.3 4.3 0 0 0-.35-.1 3.32 3.32 0 0 0-.48-.03h-.15c.3-.38.6-.73.88-1.06a3.8 3.8 0 0 1 .46-2.68c.64-1.17 1.31-1.32 2.22-1.9.44.37.8.68.94.77.04 0-.45-.48-.81-.86a6.41 6.41 0 0 0 .62-.47c.52.02 1.1.1 1.65.32-.36.48-.84.95-1.31 1.46-.78.81-2.36 2.77-3.75 4.7"/><g clip-path="url(#s)" transform="matrix(.35278 0 0 -.35278 -10.14 117.9)"><path fill="url(#t)" d="M229.6 143.3l-.34.16.34-.02v-.15"/></g><g clip-path="url(#u)" transform="matrix(.35278 0 0 -.35278 -10.14 117.9)"><path fill="url(#v)" d="M312.12 140.6c-1.47 0-2.92.11-4.26.23-9.87.72-20.26.69-30.3 1.76-4.4.33-8.92.8-13.2 1.96-.3.07 2.8 3.44 2.52 3.52-.25-.2-3.89-3.68-4.13-3.86l-.83-.58-.11.48c-5.41 0-11.43 2.98-15.83 6.2l-.05.74a35.3 35.3 0 0 0-.77 5.62c4.28 3.12 6.63 6.63 8.98 11.52 1.79 3.56 3.34 7.13 5.38 10.42.34-2.01 1.4-4.33 3.3-5.12l1.12-.62c2.1-.06 4.17-.38 6.24-1.36 3.38-1.6 5.08-4.61 5.63-8.34.85-.14 1.71-.32 2.56-.51.5 2.97 1.69 9.3 2.72 12.01.94 2.69.02 5.36-.91 8-1.87 5.29-3.06 10.05-3.86 13.21 2.5 2.19 5.57 4.63 8.75 7.09 1.36-5.18 2.8-12.47 3.33-15.09.67-3.65 3.1-7.69 1.84-11.31-1.19-3.26-4.54-10.95-5.96-15.48l2.4-.7c5.39-1.62 10.77-3.41 16.51-3.59.94-.1 1.93-.2 2.94-.2.75 0 1.5.05 2.27.2l.46.4a9.34 9.34 0 0 0-2.8 3.55c-1.8 4.12-.53 9.5-.53 14 0 3.76-.36 7.71-.54 11.66-.18 1.97-.18 3.94-.18 5.92 0 1.61.54 3.59.36 5.02-.36 2.12-3.65 2.33-5.3 3.19l-.46-.01c-1.87 0-3.6.41-4.77 1.27a3.77 3.77 0 0 0-1.33 4.75c-.01-.03-.07-.1-.33-.1-.31 0-.9.1-2.03.56.7.35 1.4.68 2.05.99 2.83 1.34 5.02 1.85 6.86 1.85 3.14 0 5.28-1.48 7.88-2.8 1.23-.64 2.74-1.35 4.4-2.11.36-5.22.33-10.42 1.28-15.48 1.97-11.85 8.97-22.43 10.05-34.45.36-3.95.36-8.97-2.87-11.85-2.3-2.06-5.43-2.56-8.48-2.56m-59.37.4c-2.28 0-4.55.34-6.8.72l.01.03.72.02c.71.02 1.43.05 2.13.05 1.09 0 2.15-.06 3.18-.24.54-.06 1.5-.28 2.63-.5-.63-.06-1.25-.09-1.87-.09m-22.87 3.91c-.23.2-.44.41-.58.66l.56.04c0-.17.02-.34.04-.51v-.13l-.02-.06m1.6 6.1l-1.15.18c-.3-.03-.62-.05-.95-.05-2.49 0-5.57.85-8.28 2.1l1.26.16c.79.18 1.53.39 2.44.57l1.4.24 1.02.17 3.03.48c1.41.22 2.8.43 4.04.71 0 0 .53.57.13.82-.81.56-1.96.87-2.98 1.1a28.4 28.4 0 0 1-3 .44 66.8 66.8 0 0 1-5.2.27c-.54-.09-1.28-.17-2.2-.18h-.12c-1.82 0-4.32.23-7.19 1.15l-3.31 3.68c2.17.37 4.17.6 5.57.78a106.4 106.4 0 0 0 15.34 1.32c1.53 0 3.06-.05 4.61-.16.59-1.96 1.18-3.56 1.65-5.1-2.64-4.4-4.76-6.71-6.1-8.69m17.7 27.36c.15 4.95-.5 15.13-.5 15.13-.3 3.9 3.06 13.6 5.2 23.65 3.64 1 7.56 2.27 9.6 4.92a97.8 97.8 0 0 1 5.61 18.54c.73 3.13 1.82 7.4 3.6 11.04 1.88-12.63 4.99-24.2 5.18-25.64.25-1.91-.39-4.02-.39-4.02-.76-2.87-7.8-8.52-12.63-15.12-7.27-9.95-10.28-19.04-11.49-22.08-1-2.53-2.48-4.42-4.18-6.42m58.95 49.8a15.86 15.86 0 0 0-6.57 3.27 14.92 14.92 0 0 1-3.33 2.7 61.17 61.17 0 0 1-2.4 1.82c-.06 0-.04-.18.01-.45l-.65.34a585.67 585.67 0 0 1-5.84 13.23c.83-1 1.71-1.97 2.7-2.9 2.7-2.52 5.93-4.49 8.62-7a30.6 30.6 0 0 0 6.64-9.33c.28-.57.56-1.13.82-1.69"/></g><g clip-path="url(#w)" transform="matrix(.35278 0 0 -.35278 -10.14 117.9)"><path fill="url(#x)" d="M254.62 141.08c-1.13.22-2.1.44-2.63.5a17.9 17.9 0 0 1-3.18.24c-.7 0-1.42-.03-2.13-.05l-.72-.02c.2.28.29.6.25 1-.07 1.91-3.46 3.8-3.76 5.94-.07 1.91.4 3.5.7 5.3l.28 1.48.95.66.78.54c.16-2.25.41-4.18.77-5.62l.05-.74c4.4-3.22 10.41-6.2 15.83-6.2.04-.17.08-.33.1-.48a15.65 15.65 0 0 0-7.3-2.55m-17.02 18.6c-.47 1.54-1.06 3.14-1.65 5.1 1-.07 2.01-.17 3.03-.3.05-.7.08-1.44.09-2.22-.5-.93-1-1.78-1.47-2.57m1.3 21.87c-.12.6-.21 1.2-.3 1.8-.17 3.58 0 7.9 1.26 11.3l.28.7c.4-2.47.7-4.67.28-6.05-.3-1.55-1-4.38-1.53-7.75"/></g><g clip-path="url(#y)" transform="matrix(.35278 0 0 -.35278 -10.14 117.9)"><path fill="url(#z)" d="M229.26 143.46c-9.53.72-20.65 1.5-23.14 2.22-3.59 1.07-8.43 3.59-8.79 7.71-.4 3.05 1.3 5.14 3.89 6.6 3.63-2.02 7.31-4.5 10.71-6.82 2.95-2.01 5.35-4.24 8.27-5.78l1.63-.72c3.21-.78 5.64-2.28 7.43-3.2"/></g><g clip-path="url(#A)" transform="matrix(.35278 0 0 -.35278 -10.14 117.9)"><path fill="url(#B)" d="M229.6 143.44l-.34.02c-1.8.93-4.22 2.43-7.43 3.2l-1.63.73c-2.92 1.54-5.32 3.77-8.27 5.78-3.4 2.33-7.08 4.8-10.71 6.83 2.6 1.47 6.08 2.3 9.2 2.84 1.11-1.22 2.22-2.45 3.31-3.68a23.6 23.6 0 0 1 7.19-1.15h.12c.92 0 1.66.1 2.2.19 1.02-.02 2.84-.07 5.2-.28.94-.1 1.95-.23 3-.45a8.76 8.76 0 0 0 2.98-1.09c.4-.25-.13-.82-.13-.82-1.23-.28-2.63-.49-4.04-.71l-3.03-.48-1.02-.16-1.4-.25c-.9-.18-1.65-.4-2.44-.57l-1.26-.15c2.7-1.26 5.8-2.1 8.28-2.1.33 0 .65 0 .95.04l1.16-.19a7.97 7.97 0 0 1-1.63-5.4c-.21 0-.4-.01-.56-.03.15-.25.35-.46.58-.66a5.43 5.43 0 0 1-.28-1.46"/></g><g clip-path="url(#C)" transform="matrix(.35278 0 0 -.35278 -10.14 117.9)"><path fill="url(#D)" d="M232.47 140.6c-1.86 0-2.87 1.07-2.87 2.7a4.8 4.8 0 0 1 1.94-.63h.2c0 .23-.05.43-.14.62l5.48-.44.02-.06c.04-.22.15-.43.32-.63a2.93 2.93 0 0 1 .53-.46c-2-1.36-2.58-.95-5-1.08a5.48 5.48 0 0 0-.48-.02"/></g><g clip-path="url(#E)" transform="matrix(.35278 0 0 -.35278 -10.14 117.9)"><path fill="url(#F)" d="M231.54 142.67a4.8 4.8 0 0 0-1.94.62v.15l2-.15c.09-.19.14-.39.14-.61l-.2-.01"/></g><g clip-path="url(#G)" transform="matrix(.35278 0 0 -.35278 -10.14 117.9)"><path fill="url(#H)" d="M237.07 142.85c-1.64.14-3.5.28-5.47.43-.32.66-1.1 1.08-1.72 1.62 0 .02 0 .04.02.06v.13l-.04.5c1.49.08 4.15.05 6.52.1.16-1.08.41-2.12.7-2.84m-.6 7.33c-1.38.34-3.04.62-4.95.8l-.04.02c1.34 1.97 3.46 4.27 6.1 8.69.43-1.37.76-2.68.9-4.12-.53-1.93-1.53-3.57-2.01-5.4"/></g><g clip-path="url(#I)" transform="matrix(.35278 0 0 -.35278 -10.14 117.9)"><path fill="url(#J)" d="M238.5 155.57a20.79 20.79 0 0 1-.9 4.12c.47.79.95 1.64 1.46 2.57a42 42 0 0 0-.26-5.1 9.81 9.81 0 0 0-.3-1.59"/></g><g clip-path="url(#K)" transform="matrix(.35278 0 0 -.35278 -10.14 117.9)"><path fill="url(#L)" d="M231.6 143.28l-2 .16c.02.45.1.94.28 1.46.61-.54 1.4-.96 1.72-1.61m-1.74 2.3a7.97 7.97 0 0 0 1.63 5.4h.04c1.9-.2 3.56-.47 4.95-.81a7.95 7.95 0 0 1-.27-1.74c-.05-.8.02-1.8.17-2.75-2.37-.05-5.03-.02-6.52-.1"/></g><g clip-path="url(#M)" transform="matrix(.35278 0 0 -.35278 -10.14 117.9)"><path fill="url(#N)" d="M344.59 141.84c-2.08 0-4.21.64-4.18 3.5l-.02.14c-.1 3.16-1.8 6.02-2.65 9.33-1.89 6.68-1.9 13.92-3.56 20.74-1.62 7.01-1.42 15.2-6.02 21.08l-.51.58c-3.68 2.45-10.3 5.34-15.5 7.73a87.52 87.52 0 0 1-.37 4.16l.2-.44c.83 7.08-.92 13.25-3.84 19.48 2.99-.76 6.23-.96 9.09-.96 1.45 0 2.8.05 3.96.1 1.17.05 2.16.1 2.88.1.37 0 .68-.01.9-.05 1.75-.14 4.3-.07 6.25-.72-.47 3.28.25 8.47.25 11.06-.19 7.27-.95 14.35.58 21.82.76 3.45 2.1 6.7 2.87 10.34.77 3.25 2.1 7.46 1.91 10.9l.09.33h-.06c.12 2.15.36 4.17.93 6.32.34 1.58-.13 2.48 4.02 4.78.25.13.47.2.66.2 2.23 0 1.3-8.29 1.5-10.37l.04-.27c.79.67 1.59 1.37 2.53 1.37.5 0 1.04-.2 1.63-.69-.75-.52-1.23-.78-1.83-1.6-.6-.56-1.31-1.43-1.91-2-1.05-.92-2.43-.93-3.39-3.23v-.2c-.95-3.82-1.89-15.02-2.68-18.94-1.81-9 2.68-21.53 3.07-27.95.15-2.51-.3-4.25-.77-6.7-.66-3.47-1.13-4.1-1.15-6.1l.04-.08c1.05-.25 2.01-.34 2.81-.34 1.43 0 2.34.27 2.34.27-.04.4-.18 4.6.1 5.61.2.69.58.9 1.05.9.39 0 .83-.14 1.28-.3.23-.07.46-.12.68-.12.28 0 .55.09.77.35.2.24.22.4.5.56a.4.4 0 0 0 .18.04.8.8 0 0 0 .37-.12c.2-.1.24-.26.28-.26.02 0 .04.05.08.2.06.23.35.34.6.34.1 0 .2-.02.27-.04.3-.11.39-.4.65-.4.13 0 .3.07.54.25.2.15.35.34.56.48.07.04.14.06.2.06.16 0 .32-.1.43-.22.46-.55.84-1.15 1.35-1.65l.48-.39.22-.12c.03.37.56.84 1.01.92a1.26 1.26 0 0 1-.4-1.13c.4-.1.84-.12 1.3-.15.86-.06 1.7-.26 2.52-.56.42-.15 1.52-.73 2.69-1.66 6.3-1.93 4.66-8.42 3.86-10.69.3.26.64.58.85.94.1.16.21.22.32.22.31 0 .57-.54.24-.97-.3-.4-.9-.71-1.45-.8.24-.03.53-.06.83-.06a3.3 3.3 0 0 1 .89.09c.53 0 .38-.86-.3-.94l-.18-.01c-.21 0-.44.04-.67.11a3.45 3.45 0 0 0 1.17-2.5c0-3.33-4.34-5.63-7.67-5.63a5.1 5.1 0 0 0-2.2.44 2.85 2.85 0 0 0-1.64 3.34c0-.04-.44-.42-1.64-.42-.64 0-1.5.11-2.64.44a14.08 14.08 0 0 0-6.23 4.11c-.36.06-.77.1-1.22.1a5.57 5.57 0 0 1-3.56-1.2c-1.91-1.54-.64-4.26-.64-4.26 1.6-3.48.1-8.12-.1-11.8-.17-3.48.94-14.69 1.14-16.5a25.9 25.9 0 0 1 1.82-6.06c1.1-3.96.88-6.85.59-10.9-.12-1.64-.32-3.9-.2-6.05l.22-.5c1.13-2.31 4.76-2.73 7.05-3.33 1.33-.4 1.48-.95 3.01-.97h.97c1 0 1.99-.07 2.85-.8-1.08-1.31-2.58-1.64-4.18-1.64-.83 0-1.7.09-2.54.18-.85.09-1.68.18-2.45.18-.4 0-.8-.02-1.16-.09-.74-.12-1.84-.31-2.96-.31m-85.08 36.77c-.04.28-.08.54-.1.8 0 4.13 1.98 9.33 4.67 12.38 1.8 1.97 4.12 2.87 6.64 3.95a31.3 31.3 0 0 1 4.95 2.66 99 99 0 0 0 .65-2.52 64.9 64.9 0 0 1-3.04-2.81c-4.02-3.64-8.61-7.27-11.86-11.68-.69-.9-1.32-1.83-1.9-2.78m25.55 24.36a30.34 30.34 0 0 1-1.59 4.92c.52 1.39.85 2.92.75 4.48 1.1-1.7 2.6-3.39 4.58-4.37a28.3 28.3 0 0 1 2.14-.99 26.3 26.3 0 0 1-2.13-1.18c-1.25-.94-2.5-1.9-3.75-2.86m-6.8 21.59c.1 4.22.56 9.99 3.9 18.98l.03.46c3.05-2.87 7.18-4.84 10.77-7 .62-.34 1.4-.73 2.23-1.17a51.94 51.94 0 0 0 1.07-2.67c.1 0-.06.7-.22 1.4l-.2.93c.78-.42 1.6-.87 2.38-1.37 1.2-.95 2.37-1.93 3.34-2.7a5.46 5.46 0 0 0 1.4-2.9c-.45.38-.83.66-1.05.8-.98.58-2.03 1.04-3.14 1.33-.59.15-1.15.28-1.67.5.03.58.34 1.11.82 1.38-.62 0-1.41-.48-1.54-.95l-.26.21c-.17.18-.35.4-.53.61-.54.78-.9 1.65-1.36 2.47-.12.22-.34.4-.58.4a.48.48 0 0 1-.2-.03c-.3-.13-.54-.35-.83-.49-.3-.14-.5-.2-.67-.2-.43 0-.45.45-.85.68-.15.09-.36.14-.56.14-.27 0-.53-.1-.64-.33-.08-.17-.12-.23-.15-.23-.05 0-.07.24-.3.42-.16.12-.35.24-.56.24a.5.5 0 0 1-.14-.02c-.4-.12-.47-.33-.79-.6-.26-.21-.53-.3-.8-.3-.38 0-.76.16-1.13.36a4.5 4.5 0 0 1-1.9.72c-.5 0-.93-.24-1.27-.94-.62-1.25-1.45-6.74-1.5-7.27 0 0-1.4-1.25-3.1-2.86m11.1 24.5c-1.72 2.06-3.2 4.2-5.02 6.25-1.23 1.5-2.87 3-4.77 3a3.9 3.9 0 0 1-1.87-.5c-2.1-1.27-3.74-3.56-5.01-6.18-.64 4.28-1.14 8.67-1.33 12.84-.28 6.04-4.83 8.65-6.5 14.55-1.92 6.7-1.16 11.86-3.07 20.86l-.4 1.85c1.15 3.97 2.33 8.66 1.2 12.06l-.79.52c-.67.42-1.42.8-2.22 1.17-.12 1.5-.86 3-1.05 4.5-.1 1.62-.48 3.83 1.06 4.78 1.23.85 2.92 1.85 3.7 1.85h.03c.77-.03 1.27-2.88 1.27-2.88.96-2.3.26-7.39.26-9.69 0-3.44 1.34-5.16 2.49-9 1.88-6.27 4.6-10.14 6.7-16.45 1.03-3.1 4.78-16.27 6.12-19.34.32-.74 4.96-10.79 9.2-20.19"/></g><g clip-path="url(#O)" transform="matrix(.35278 0 0 -.35278 -10.14 117.9)"><path fill="url(#P)" d="M245.16 156.67c-.1 1.46-.18 3.05-.23 4.73 1.46 4.67 3.08 7.93 4.13 15.1.07.45.11 1.1.13 1.85 1.7 2 3.18 3.89 4.19 6.42 1.2 3.05 4.2 12.13 11.48 22.08 4.83 6.6 11.87 12.25 12.63 15.12 0 0 .64 2.1.39 4.02-.2 1.43-3.3 13.01-5.18 25.64 1.27 2.62 2.9 4.91 5.01 6.19a4 4 0 0 0 1.87.5c1.9 0 3.54-1.5 4.77-3.01 1.82-2.06 3.3-4.2 5.01-6.25 2.33-5.15 4.53-10.1 5.84-13.23-.84.44-1.6.83-2.23 1.18-3.6 2.15-7.72 4.12-10.77 7l-.03-.47c-3.34-9-3.8-14.76-3.9-18.98 1.7 1.6 3.1 2.86 3.1 2.86.05.53.88 6.02 1.5 7.27.34.7.78.94 1.26.94a4.4 4.4 0 0 0 1.9-.72c.38-.2.76-.36 1.13-.36.28 0 .55.09.81.3.32.27.38.48.8.6.04.02.08.02.13.02.2 0 .4-.12.56-.24.23-.18.25-.42.3-.42.03 0 .07.06.15.23.1.23.37.33.64.33.2 0 .41-.05.56-.14.4-.23.42-.67.85-.67.16 0 .37.05.67.2.29.13.53.35.83.48a.5.5 0 0 0 .2.04c.24 0 .46-.19.58-.4.47-.83.82-1.7 1.36-2.48.18-.22.36-.43.53-.61l.26-.21c.13.47.92.95 1.54.95-.48-.27-.8-.8-.82-1.37.52-.23 1.08-.36 1.67-.51 1.1-.29 2.16-.75 3.14-1.34.22-.13.6-.4 1.06-.79a5.46 5.46 0 0 1-1.41 2.9l.8-.64a15.86 15.86 0 0 1 5.77-2.64c2.93-6.23 4.67-12.4 3.84-19.48l-.2.44a87.52 87.52 0 0 0 .37-4.16c-1.66.76-3.18 1.47-4.41 2.1-2.6 1.33-4.73 2.81-7.88 2.81-1.84 0-4.03-.5-6.86-1.85-.66-.31-1.35-.64-2.05-.99-.56.23-1.27.55-2.14.99a12.13 12.13 0 0 0-4.58 4.37c.1-1.56-.23-3.1-.75-4.48.47-.94 1.02-2.74 1.6-4.92-3.2-2.46-6.25-4.9-8.75-7.09a99 99 0 0 1-.66 2.52 31.65 31.65 0 0 0-4.95-2.66c-2.51-1.08-4.85-1.98-6.64-3.95a20.68 20.68 0 0 1-4.67-12.38c.02-.26.06-.52.1-.8-2.03-3.3-3.58-6.86-5.37-10.42-2.35-4.89-4.7-8.4-8.98-11.52m53.08 77.45c-.8.5-1.6.95-2.39 1.37-.05.27-.07.45-.01.45h.02a66 66 0 0 0 2.38-1.82"/></g><g clip-path="url(#Q)" transform="matrix(.35278 0 0 -.35278 -10.14 117.9)"><path fill="url(#R)" d="M243.43 155.47c.46 2.34.97 4.23 1.5 5.93.05-1.68.12-3.27.23-4.73l-.78-.54c-.31-.2-.63-.43-.95-.66"/></g><g clip-path="url(#S)" transform="matrix(.35278 0 0 -.35278 -10.14 117.9)"><path fill="url(#T)" d="M79.47 140.6c-.42 0-.84 0-1.27.02.88.06 1.62.24 2.16.57 2.46 1.67 5.44 1.06 3.66 2.25-.65.63-1.99 1.25-3.62 1.87.82.42 1.66.79 2.59.98.39.04.78.05 1.18.05h1.18c.79 0 1.57.04 2.36.3h.01c.26.91.46 1.75.6 2.54-1.3-.25-2.69-.25-3.97-.25a22.1 22.1 0 0 0-5.89.18c-.44 0-2.06.36-2.06 1.44.14 1.07 1.76 1.07 2.35 1.07 1.62.25 2.89 1.25 4.24 2.04l.67-.08a23.24 23.24 0 0 1 3.44-.13 5.8 5.8 0 0 1 1.49.28c.1.05.2.08.28.13l.1.06.18.12c.28.2.6.36.9.53 1.54.92.48 1.08.22 1.18-.7.26-1.4.5-2.11.74-.54 2.63-1.4 5.53-1.87 10.15-.1 1.08.05 2.16.08 3.24l.12.63a14.3 14.3 0 0 1-4.9 5.51l-.95.61c.55 1.12 1.11 2.21 1.67 3.3l.75.99a25.78 25.78 0 0 0 2.48 2.62c3.65-2.65 7.5-5.5 8.3-6.3 1.12-1.11.2-6.93.4-11.42 0-4.08.2-8.16-.2-12.24-.4-3.62-.84-11.17-5.16-12.16-2.05-.7-4.44-.7-6.6-.7-.86-.08-1.82-.12-2.8-.12m-31.63 40.64c-.5 0-1.04.38-1.58.76-.31.22-.64.4-.98.4a1 1 0 0 1-.55-.18c-.28-.18-.36-.35-.7-.4l-.06-.01c-.18 0-.34.12-.47.25-.17.16-.16.36-.2.36-.03 0-.06-.05-.14-.18-.09-.14-.26-.2-.44-.2a.9.9 0 0 0-.54.17c-.3.23-.26.61-.68.61-.12 0-.27-.03-.48-.1-.25-.08-.47-.23-.72-.3a.4.4 0 0 0-.11-.03c-.22 0-.39.18-.47.38-.3.7-.5 1.43-.86 2.1l-.37.54-.19.19c-.13-.34-.72-.63-1.2-.63H37c.4.18.7.58.77 1.03-.38.23-.83.39-1.29.56-.85.33-1.64.8-2.37 1.35-.39.29-1.32 1.22-2.22 2.53-5.81 3.92-2.11 10-.6 12.05a4.3 4.3 0 0 1-1.16-.68c-.11-.1-.21-.14-.3-.14-.38 0-.54.7-.03 1.07a2.44 2.44 0 0 0 1.73.36c-.44.2-1.04.44-1.6.48-.72.04-.39.9.28.9.05 0 .1 0 .15-.02.27-.04.57-.18.84-.37-.4.7-.76 1.73-.41 2.91.77 2.54 3.84 3.72 6.75 3.72 1.93 0 3.8-.52 4.88-1.51a3.03 3.03 0 0 0 .62-3.91c.02.02.22.11.62.11.66 0 1.86-.25 3.73-1.46a14.47 14.47 0 0 0 4.3-4.68l.23-.07a5.95 5.95 0 0 1 1.68-.25c1.94 0 3.32.94 3.32.94 2.24 3.57 6.52 9.38 10 12.65 3.87 3.67 7.74 7.34 11.41 11.22 6.12 6.52 11.48 15.6 20.86 16.42a10.55 10.55 0 0 0 1.8 0 106.58 106.58 0 0 1-9.46-20.88c-6.7-20.56-12.5-19.36-17.64-27.73a37.03 37.03 0 0 1-3.86-8.72 21.88 21.88 0 0 0-7.4 5.82 15.1 15.1 0 0 1-4.56.73c-3.47 0-6.75-1.36-8.21-4.76a15.11 15.11 0 0 0-1.04-2.75c-.3-.47-.63-.65-.97-.65m42.34 6.35c.31.31.62.63.9.97 2.44 2.86 4.17 6.75 7.82 10.28a54.88 54.88 0 0 1 4.17 4.57c1.81.1 3.63.12 5.35.12h1.32c2.49 0 4.73.02 6.43.34l.58.12c-.87-1.35-1.97-2.46-2.96-3.7a8.25 8.25 0 0 1-1.53-3.74 452.34 452.34 0 0 1-22.08-8.96"/></g><path fill="#303116" d="M29.47 48.56c.08-.47.24-.92.54-1.32.35-.44.74-.83 1.04-1.3a6.22 6.22 0 0 0 2.25-.97l-.07-.1a1.1 1.1 0 0 1 .02-1.1 1.3 1.3 0 0 1 1.38-.86c.6 0 .81.56 1.34.86a2 2 0 0 0 1.02.25c.47 0 .95-.13 1.43-.24.14.4.28.8.44 1.17-.47.18-.86.49-1.54.96-1.2.8-3.63 1.24-5 1.69-.57.15-1.56.48-2.85.96"/><g clip-path="url(#U)" transform="matrix(.35278 0 0 -.35278 -10.14 117.9)"><path fill="url(#V)" d="M78.2 140.62c-1 .04-1.99.13-2.92.28-.53 0-2.45.36-2.45 1.43.17 1.08 2.1 1.08 2.8 1.08 1.81.24 3.26 1.15 4.77 1.9 1.63-.62 2.97-1.24 3.62-1.87 1.78-1.19-1.2-.58-3.65-2.25a4.82 4.82 0 0 0-2.17-.57m7.96 12.8a23.24 23.24 0 0 0-3.17.24c.62.36 1.26.67 1.95.84a7.57 7.57 0 0 0 1.49.05h.48a6 6 0 0 1 1.55.16c-.07.6-.18 1.18-.3 1.78a43.2 43.2 0 0 0 2.1-.74c.27-.1 1.33-.26-.22-1.18-.29-.17-.61-.34-.9-.53l-.17-.12-.1-.06-.28-.13a5.73 5.73 0 0 0-1.49-.28c-.3-.02-.62-.03-.94-.03m-5.52 23.21c-3.38 2.12-6.99 4.01-10.39 6.12l-.22.1c.87 2.83 2 5.68 3.87 8.72 5.13 8.37 10.94 7.17 17.63 27.73a106.58 106.58 0 0 0 9.46 20.89 14.8 14.8 0 0 0 7.08-2.46l1.91-1.31c4.12-5 5.73-10.35-.72-20.78-1.46-2.37-6.6-8.05-8.59-11.26-.09-.15-3.7-1.6-5.86-2.5 2.51.97 5.39 1.37 8.27 1.53a54.88 54.88 0 0 0-4.17-4.57c-3.65-3.53-5.38-7.42-7.81-10.28-.3-.34-.6-.66-.91-.97a561.2 561.2 0 0 1-5.48-2.4c-.2 0-1.26.57-2.31 1.14a14.83 14.83 0 0 1-2.33 1.14 687 687 0 0 0 5.47-3.93 25.78 25.78 0 0 1-3.23-3.61 168.9 168.9 0 0 1-1.67-3.3m13.11 24.8"/></g><path fill="#241d03" d="M38.86 44.95c-.16-.37-.3-.77-.44-1.17a6.78 6.78 0 0 1 1.33-.19c1.34 0 1.68.68 1.34.81l-.42.37h-.46c-.6 0-1 .05-1.35.18"/><g clip-path="url(#W)" transform="matrix(.35278 0 0 -.35278 -10.14 117.9)"><path fill="url(#X)" d="M242.46 140.6c-1.66 0-3.47.4-4.5 1.1 0 .02.02.03.04.04l-.39 1.06 1.65-.15c.29-.16.6-.29.9-.38 1.37-.44 2.86-.54 4.38-.54.43 0 .85 0 1.28.02l.13-.02c-.58-.79-1.97-1.13-3.5-1.13"/></g><g clip-path="url(#Y)" transform="matrix(.35278 0 0 -.35278 -10.14 117.9)"><path fill="url(#Z)" d="M244.54 141.73c-1.52 0-3 .1-4.38.54-.3.1-.61.22-.9.38l2.03-.2c1.5-.18 3.01-.45 4.53-.7a49.7 49.7 0 0 0-1.28-.02m-1.37 13.33c-.02 0-.05.06-.1.15l.06.03.04-.18"/></g><g clip-path="url(#aa)" transform="matrix(.35278 0 0 -.35278 -10.14 117.9)"><path fill="url(#ab)" d="M245.94 141.72l-.12.02h.14l-.02-.02m-6.68.93l-1.64.15-.32.88a7.4 7.4 0 0 0-.24 1.62 4.57 4.57 0 0 1 2.2-2.65"/></g><g clip-path="url(#ac)" transform="matrix(.35278 0 0 -.35278 -10.14 117.9)"><path fill="url(#ad)" d="M245.82 141.75c-1.52.25-3.03.52-4.53.7l-2.03.2a4.57 4.57 0 0 0-2.2 2.65v.4c2.16.07 3.94.22 4.13.6.59 1.29-.52 2.48-3.03 3.38a17.56 17.56 0 0 0 4.92 5.53c.04-.1.07-.15.08-.15l-.04.18.31.23c-.1-.47-.18-.97-.27-1.48-.31-1.8-.78-3.39-.7-5.3.3-2.14 3.68-4.03 3.75-5.94a1.4 1.4 0 0 0-.25-1h-.14"/></g><g clip-path="url(#ae)" transform="matrix(.35278 0 0 -.35278 -10.14 117.9)"><path fill="url(#af)" d="M237.06 145.7a8.98 8.98 0 0 0 1.1 3.98c2.52-.9 3.62-2.1 3.03-3.38-.19-.38-1.97-.53-4.13-.6"/></g><g clip-path="url(#ag)" transform="matrix(.35278 0 0 -.35278 -10.14 117.9)"><path fill="url(#ah)" d="M241.66 198.57c-.6.22-1.3.36-2.11.41a32.2 32.2 0 0 0-.34 3.45c-.04 1.24-.18 2.93-.34 4.95l-.08 7.12c-.1-.01-.5-6.99-.6-6.99-3.9.18-1.13 11.76-6.19 11.76a4 4 0 0 1-.73-.07c-3.46-.64-7.87-2.84-13.05-4.65a6.31 6.31 0 0 1-.54 3.3c-2.43 5.28-8.23 8.05-10.28 13.77-.03.07-.2.32-.5.68 5.75 3.58 15.54 8.63 22.4 11.22l2.66 1.12h-.01c-.1 0-.59-.14-1.07-.28a8.6 8.6 0 0 0-1.09-.29c1.82 3.69 2.12 9.27 2.04 12.76a25.41 25.41 0 0 1-2.23 10.6c-1.32 3.16-4.47 9.73-6.54 14.68-1.7 4.05-7.28 19.84-7.65 24.13-.64 5.48 2.72 5.54 6.22 7.6 4.16 2.32 12.25 7.04 12.7 10.39l.12.36c.82 1.7 2.16 9.6 3.7 9.6h.06c.32-2.85-.2-5.1.13-7.97.06-.43.16-.95.25-1.5.06.46.14.9.2 1.26.32 2.87-.1 5.36.22 8.21h.05c1.53 0 2.15-7.08 2.98-8.77l.05-.47c1.23-5.11 11.02-6.53 17.5-9.47v-.1c0-1.91-1.52-3.54-2.29-5.26-.38-.86-.86-1.91-.48-2.87a4.13 4.13 0 0 1 2.3-1.92l.13-.03c1.4-1.4 1.8-2.15 2.15-3.57-.37-1.27-.74-2.46-1.03-3.52-1.58-5.81-2.73-10.75-4.1-16.3l-1.79-7.56c-2.64-9.22-6.7-19.43-2.09-27.8 1.14-2.08 3.08-5.88 3.19-15.57.04-4.31-.69-9.11-1.7-13.85-1.2-.33-2.37-.63-3.44-.94-5.02-1.61-8.8-4.12-8.8-10.05.1-1.37.95-2.58 2.08-3.4h.08c-.66-1.42-1.41-2.78-2.14-4.17m-5.3 120.92c-4.15 0-8.66-10.37-14.12-13.84h-.3c2.41-4.93 3.83-7.44 5.9-15.25.9-3.36 3.12-5.2 4.95-5.2 1.69 0 3.05 1.58 2.71 4.99-.12 1.18-.3 2.26-.57 3.4l-.12.03c-.31 1.08-3.24 6.08-3.05 9.28.18 3.14 1.24 3.76 1.3 3.76-.08 0-2.17.15-2.43 2.46-.31 2.85 3.08 7.24 6.39 7.24a3.2 3.2 0 0 0 3.02-2c0 .29.06.57.17.79.13.25.37.37.57.37.28 0 .49-.2.28-.53a4.1 4.1 0 0 1-.5-1.38c.26.47.72.89 1.15 1.03a.7.7 0 0 0 .22.04c.53 0 .85-.63.27-.76a3.75 3.75 0 0 1-1.08-.45c2.24 0 8.41-.56 8.16-6.67.46-1.3.62-2.45.63-2.86.01-.8-.07-1.6-.28-2.38-.12-.41-.23-.8-.28-1.19.18-.1.37-.14.56-.14.2 0 .4.05.56.15a1.34 1.34 0 0 0-1-.61l-.12.01.04-.23c.05-.16.12-.35.2-.53.27-.61.68-1.13 1.02-1.7.11-.19.14-.45-.05-.6-.18-.13-.4-.2-.59-.34-.73-.5-.24-.65-.24-1.08 0-.28-.21-.67-.5-.67h-.16c-.18 0 .04-.07.08-.34.03-.16.03-.37-.1-.5-.22-.2-.38-.17-.65-.27-.52-.2-.62-.69-.63-1.2-.02-.93-.05-1.85-1.12-1.85h-.13c-.63.04-2.41.66-3.66 1.13-.22-1.97-.65-4.33 2-5.03.39-.1.76-.15 1.13-.15 3.4 0 5.6 4.14 6.33 6.33 1.81 5.58 2.05 11.34 3.87 16.68l-.07.15c-2.37.73-4.9 3.04-6.33 4.14a47.6 47.6 0 0 1-9.5 5.54l-.4.22c-.7.33-1.1.93-1.3 1.65a2.33 2.33 0 0 0-1.23-1.55l-.57-.13a2 2 0 0 1-.42.04"/></g><g clip-path="url(#ai)" transform="matrix(.35278 0 0 -.35278 -10.14 117.9)"><path fill="url(#aj)" d="M240.13 164.32l-1.16.16c-.17 2.53-.53 4.74-.69 7.5-.19 3.26.14 6.62.6 9.58.39-2.1.91-4.19 1.33-6.28.45-3.1.29-6.3.71-9.34a88 88 0 0 0-.78-1.62m-.01 31.04c-.2 1.16-.4 2.4-.58 3.62.8-.05 1.5-.2 2.1-.41a38.87 38.87 0 0 1-1.52-3.21m-39.35 15.71c-3.1 0-4.93 1-6.53 3.75-4.22 7.26 7.43 14.15 12.23 17.22l.42.26c.3-.36.47-.6.5-.68 2.05-5.72 7.85-8.49 10.28-13.78.5-1.1.66-2.24.54-3.29a50.3 50.3 0 0 0-7.12-1.97c-4.58-.87-7.85-1.5-10.32-1.5"/></g><g clip-path="url(#ak)" transform="matrix(.35278 0 0 -.35278 -10.14 117.9)"><path fill="url(#al)" d="M244.91 173.04c.15 9.7.54 19.07.01 21.35-.48 2.1-1.43 3.52-3.26 4.18.72 1.4 1.48 2.75 2.14 4.17h-.08a4.74 4.74 0 0 0-2.07 3.4c0 5.93 3.76 8.44 8.79 10.05 1.06.31 2.24.61 3.45.94-2.14-10.04-5.5-19.75-5.2-23.65 0 0 .65-10.18.5-15.13-1.33-1.57-2.8-3.22-4.28-5.31"/></g><g clip-path="url(#am)" transform="matrix(.35278 0 0 -.35278 -10.14 117.9)"><path fill="url(#an)" d="M239.06 162.26c-.01.78-.04 1.52-.1 2.22.4-.04.78-.1 1.17-.15a77.6 77.6 0 0 0-1.07-2.07m1.86 3.68c-.42 3.03-.26 6.25-.7 9.34-.43 2.1-.95 4.19-1.34 6.28.53 3.37 1.23 6.2 1.53 7.75.41 1.38.12 3.58-.28 6.05.45 1.1.98 2.17 1.53 3.21 1.83-.66 2.78-2.07 3.26-4.18.53-2.28.14-11.65 0-21.35a38.49 38.49 0 0 1-4-7.1"/></g><g clip-path="url(#ao)" transform="matrix(.35278 0 0 -.35278 -10.14 117.9)"><path fill="url(#ap)" d="M237.95 141.7a2.93 2.93 0 0 0-.53.46c-.17.2-.28.4-.32.63l-.03.06.54-.05.39-1.06-.05-.03"/></g><g clip-path="url(#aq)" transform="matrix(.35278 0 0 -.35278 -10.14 117.9)"><path fill="url(#ar)" d="M243.08 155.2c-.51 1.18-2.57 9.07-2.81 9.1l-.14.02a88 88 0 0 1 .8 1.62l.14-.94 2.05-9.76-.04-.03"/></g><g clip-path="url(#as)" transform="matrix(.35278 0 0 -.35278 -10.14 117.9)"><path fill="url(#at)" d="M237.62 142.8l-.54.05c-.29.72-.54 1.76-.7 2.84l.58.01.1-.4c.02-.53.1-1.07.24-1.62l.32-.88m.38 6.93c-.46.16-.97.3-1.52.45.48 1.82 1.48 3.45 2.01 5.4.17-1.6.1-3.34-.3-5.5l-.19-.35m6.93 11.67c-.1 3.62-.08 7.66-.01 11.64 1.47 2.09 2.94 3.74 4.27 5.31-.02-.76-.06-1.4-.13-1.85-1.05-7.17-2.66-10.43-4.13-15.1"/></g><g clip-path="url(#au)" transform="matrix(.35278 0 0 -.35278 -10.14 117.9)"><path fill="url(#av)" d="M237.06 145.3l-.1.4h.1v-.4m1.1 4.38l-.16.05.2.35c.4 2.16.46 3.9.3 5.5.13.5.24 1.02.3 1.58a42 42 0 0 1 .26 5.1c.35.65.71 1.34 1.07 2.07l.14-.02c.24-.04 2.3-7.93 2.8-9.1a17.56 17.56 0 0 1-4.91-5.53m4.96 5.56l-2.05 9.77-.15.93.46.97a38.49 38.49 0 0 0 3.53 6.13c-.06-3.98-.08-8.02.02-11.64-.53-1.7-1.04-3.6-1.5-5.93l-.3-.23"/></g><g clip-path="url(#aw)" transform="matrix(.35278 0 0 -.35278 -10.14 117.9)"><path fill="url(#ax)" d="M236.38 145.69a13.3 13.3 0 0 0-.17 2.75c.02.6.12 1.18.27 1.74a18.7 18.7 0 0 0 1.52-.45l-.84-1.49a4.88 4.88 0 0 1-.2-2.54l-.58-.01"/></g><g clip-path="url(#ay)" transform="matrix(.35278 0 0 -.35278 -10.14 117.9)"><path fill="url(#az)" d="M236.96 145.7c-.15.76-.1 1.62.2 2.54l.84 1.5c.06-.03.1-.05.16-.06a8.98 8.98 0 0 1-1.1-3.98h-.1"/></g><g clip-path="url(#aA)" transform="matrix(.35278 0 0 -.35278 -10.14 117.9)"><path fill="url(#aB)" d="M261.4 301.73c-.35 1.42-.74 2.17-2.15 3.57l-.13.03a4.13 4.13 0 0 0-2.3 1.92c-.38.96.1 2 .48 2.87.77 1.72 2.3 3.35 2.3 5.26l-.01.1c.8-.36 1.55-.75 2.22-1.17l.78-.52c1.14-3.4-.04-8.1-1.2-12.06"/></g></svg>